<!-- Generated by IcoMoon.io -->
<svg version="1.1" xmlns="http://www.w3.org/2000/svg" width="30" height="32" viewBox="0 0 30 32">
<title>calculator</title>
<path fill="#fff" d="M14.933 11.733h-13.333c-0.884 0-1.6 0.716-1.6 1.6v0 17.067c0 0.884 0.716 1.6 1.6 1.6v0h13.333c0.884 0 1.6-0.716 1.6-1.6v0-17.067c0-0.884-0.716-1.6-1.6-1.6v0zM15.467 30.4c0 0.295-0.239 0.533-0.533 0.533v0h-13.333c-0.295 0-0.533-0.239-0.533-0.533v0-17.067c0-0.295 0.239-0.533 0.533-0.533v0h13.333c0.295 0 0.533 0.239 0.533 0.533v0z"></path>
<path fill="#fff" d="M13.867 13.867h-11.2c-0.295 0-0.533 0.239-0.533 0.533v0 3.2c0 0.295 0.239 0.533 0.533 0.533h11.2c0.295 0 0.533-0.239 0.533-0.533v0-3.2c0-0.295-0.239-0.533-0.533-0.533v0zM13.333 17.067h-10.133v-2.133h10.133z"></path>
<path fill="#fff" d="M5.333 19.2h-2.667c-0.295 0-0.533 0.239-0.533 0.533v0 2.133c0 0.295 0.239 0.533 0.533 0.533v0h2.667c0.295 0 0.533-0.239 0.533-0.533v-2.133c0-0.295-0.239-0.533-0.533-0.533v0zM4.8 21.333h-1.6v-1.067h1.6z"></path>
<path fill="#fff" d="M9.6 19.2h-2.667c-0.295 0-0.533 0.239-0.533 0.533v0 2.133c0 0.295 0.239 0.533 0.533 0.533v0h2.667c0.295 0 0.533-0.239 0.533-0.533v-2.133c0-0.295-0.239-0.533-0.533-0.533v0zM9.067 21.333h-1.6v-1.067h1.6z"></path>
<path fill="#fff" d="M13.867 19.2h-2.667c-0.295 0-0.533 0.239-0.533 0.533v0 2.133c0 0.295 0.239 0.533 0.533 0.533v0h2.667c0.295 0 0.533-0.239 0.533-0.533v-2.133c0-0.295-0.239-0.533-0.533-0.533v0zM13.333 21.333h-1.6v-1.067h1.6z"></path>
<path fill="#fff" d="M5.333 22.933h-2.667c-0.295 0-0.533 0.239-0.533 0.533v0 2.133c0 0.295 0.239 0.533 0.533 0.533v0h2.667c0.295 0 0.533-0.239 0.533-0.533v-2.133c0-0.295-0.239-0.533-0.533-0.533v0zM4.8 25.067h-1.6v-1.067h1.6z"></path>
<path fill="#fff" d="M9.6 22.933h-2.667c-0.295 0-0.533 0.239-0.533 0.533v0 2.133c0 0.295 0.239 0.533 0.533 0.533v0h2.667c0.295 0 0.533-0.239 0.533-0.533v-2.133c0-0.295-0.239-0.533-0.533-0.533v0zM9.067 25.067h-1.6v-1.067h1.6z"></path>
<path fill="#fff" d="M13.867 22.933h-2.667c-0.295 0-0.533 0.239-0.533 0.533v0 5.867c0 0.295 0.239 0.533 0.533 0.533v0h2.667c0.295 0 0.533-0.239 0.533-0.533v0-5.867c0-0.295-0.239-0.533-0.533-0.533v0zM13.333 28.8h-1.6v-4.8h1.6z"></path>
<path fill="#fff" d="M5.333 26.667h-2.667c-0.295 0-0.533 0.239-0.533 0.533v0 2.133c0 0.295 0.239 0.533 0.533 0.533v0h2.667c0.295 0 0.533-0.239 0.533-0.533v-2.133c0-0.295-0.239-0.533-0.533-0.533v0zM4.8 28.8h-1.6v-1.067h1.6z"></path>
<path fill="#fff" d="M9.6 26.667h-2.667c-0.295 0-0.533 0.239-0.533 0.533v0 2.133c0 0.295 0.239 0.533 0.533 0.533v0h2.667c0.295 0 0.533-0.239 0.533-0.533v-2.133c0-0.295-0.239-0.533-0.533-0.533v0zM9.067 28.8h-1.6v-1.067h1.6z"></path>
<path fill="#fff" d="M29.825 9.395c-0.028-0.067-0.067-0.124-0.115-0.172l-9.066-9.066c-0.048-0.048-0.105-0.087-0.169-0.114l-0.003-0.001c-0.061-0.026-0.131-0.042-0.205-0.042h-14.4c-0.295 0-0.533 0.239-0.533 0.533v9.6c0.007 0.289 0.243 0.521 0.533 0.521s0.527-0.232 0.533-0.521v-9.067h13.333v8.534c0 0.295 0.239 0.533 0.533 0.533v0h8.532v20.8h-10.665c-0.004-0-0.008-0-0.012-0-0.295 0-0.533 0.239-0.533 0.533s0.239 0.533 0.533 0.533c0.004 0 0.009-0 0.013-0h11.199c0.295 0 0.533-0.239 0.533-0.533v0-21.866c-0-0.074-0.016-0.145-0.043-0.209l0.001 0.003zM20.8 9.066v-7.245l7.246 7.245z"></path>
<path fill="#fff" d="M18.133 4.8h-10.133c-0.289 0.007-0.521 0.243-0.521 0.533s0.232 0.527 0.521 0.533h10.134c0.289-0.007 0.521-0.243 0.521-0.533s-0.232-0.527-0.521-0.533h-0.001z"></path>
<path fill="#fff" d="M18.133 9.067h-10.133c-0.004-0-0.008-0-0.012-0-0.295 0-0.533 0.239-0.533 0.533s0.239 0.533 0.533 0.533c0.004 0 0.009-0 0.013-0h10.133c0.004 0 0.008 0 0.012 0 0.295 0 0.533-0.239 0.533-0.533s-0.239-0.533-0.533-0.533c-0.004 0-0.009 0-0.013 0h0.001z"></path>
<path fill="#fff" d="M27.2 13.333h-9.066c-0.289 0.007-0.521 0.243-0.521 0.533s0.232 0.527 0.521 0.533h9.066c0.289-0.007 0.521-0.243 0.521-0.533s-0.232-0.527-0.521-0.533h-0.001z"></path>
<path fill="#fff" d="M27.2 17.6h-9.066c-0.289 0.007-0.521 0.243-0.521 0.533s0.232 0.526 0.521 0.533h9.066c0.289-0.007 0.521-0.243 0.521-0.533s-0.232-0.526-0.521-0.533h-0.001z"></path>
<path fill="#fff" d="M27.2 21.867h-9.066c-0.289 0.007-0.521 0.243-0.521 0.533s0.232 0.526 0.521 0.533h9.066c0.289-0.007 0.521-0.243 0.521-0.533s-0.232-0.526-0.521-0.533h-0.001z"></path>
<path fill="#fff" d="M27.2 26.133h-9.066c-0.289 0.007-0.521 0.243-0.521 0.533s0.232 0.526 0.521 0.533h9.066c0.289-0.007 0.521-0.243 0.521-0.533s-0.232-0.526-0.521-0.533h-0.001z"></path>
</svg>
