<!-- Generated by IcoMoon.io -->
<svg version="1.1" xmlns="http://www.w3.org/2000/svg" width="32" height="32" viewBox="0 0 32 32">
<title>pie-chart</title>
<path fill="#ff7657" d="M20.93 27.653l-8.14-8.141v-11.512c0-0.295-0.239-0.533-0.533-0.533v0c-0.001 0-0.001 0-0.002 0-3.777 0-7.154 1.71-9.401 4.398l-0.016 0.019-0.716-0.874v-3.543h-1.066v3.733c0 0 0 0 0 0 0 0.129 0.045 0.246 0.121 0.338l-0.001-0.001 0.999 1.219c-1.361 1.947-2.174 4.364-2.174 6.972 0 6.773 5.491 12.263 12.263 12.263 3.383 0 6.446-1.37 8.665-3.585l-0 0c0.096-0.097 0.156-0.23 0.156-0.377s-0.060-0.281-0.156-0.377v0zM12.256 30.933c-0.002 0-0.004 0-0.006 0-6.182 0-11.194-5.012-11.194-11.194 0-2.278 0.68-4.396 1.848-6.164l-0.026 0.042 3.097 3.787 0.827-0.675-3.274-4c1.957-2.43 4.875-4.018 8.168-4.183l0.026-0.001v11.188c0 0.147 0.060 0.281 0.156 0.377l7.91 7.912c-1.97 1.805-4.607 2.912-7.502 2.912-0.011 0-0.022-0-0.033-0h0.002z"></path>
<path fill="#ff7657" d="M25.59 1.067v-1.067h-4.265c-0.001 0-0.002 0-0.003 0-0.208 0-0.388 0.119-0.476 0.292l-0.001 0.003-2.116 4.239c-1.287-0.504-2.778-0.797-4.336-0.8h-0.001c-0.295 0-0.533 0.239-0.533 0.533v11.733c0 0 0 0 0 0 0 0.221 0.134 0.41 0.325 0.491l0.004 0.001c0.060 0.026 0.13 0.041 0.203 0.041 0 0 0.001 0 0.001 0h-0c0.147-0 0.281-0.060 0.377-0.156l8.297-8.297c0.097-0.097 0.156-0.23 0.156-0.377s-0.060-0.281-0.156-0.377v0c-0.953-0.949-2.060-1.742-3.282-2.339l-0.073-0.032 1.944-3.888zM21.92 7.712l-6.998 7.001v-9.9c1.21 0.060 2.344 0.304 3.402 0.703l-0.077-0.025-1.139 2.271 0.955 0.477 1.166-2.333c1.029 0.498 1.915 1.101 2.699 1.814l-0.009-0.008z"></path>
<path fill="#48475c" d="M26.123 28.8h5.867v1.067h-5.867v-1.067z"></path>
<path fill="#48475c" d="M26.123 30.933h5.867v1.067h-5.867v-1.067z"></path>
<path fill="#ff7657" d="M28.946 21.357l-1.911-0.587c0.094-0.558 0.15-1.204 0.155-1.862l0-0.005c0-0.009 0-0.021 0-0.032 0-3.377-1.374-6.434-3.594-8.641l-0.001-0.001c-0.097-0.097-0.23-0.156-0.377-0.156s-0.281 0.060-0.377 0.156v0l-8.297 8.296c-0.097 0.097-0.156 0.23-0.156 0.377s0.060 0.281 0.156 0.377l8.299 8.295c0.097 0.097 0.23 0.156 0.377 0.156s0.281-0.060 0.377-0.156v0c1.541-1.539 2.672-3.49 3.213-5.673l0.018-0.084 1.429 0.44v4.94h1.067v-5.332c-0-0.239-0.157-0.441-0.374-0.509l-0.004-0.001zM26.005 20.449l-3.993-1.227-0.313 1.020 4.107 1.264c-0.461 1.919-1.366 3.583-2.603 4.939l0.008-0.009-7.534-7.534 7.534-7.533c1.805 1.97 2.912 4.606 2.912 7.501 0 0.011-0 0.023-0 0.034v-0.002c-0.004 0.549-0.047 1.085-0.125 1.609l0.008-0.062z"></path>
<path fill="#48475c" d="M0.523 0.533h6.933v1.067h-6.933v-1.067z"></path>
<path fill="#48475c" d="M0.523 2.667h6.933v1.067h-6.933v-1.067z"></path>
<path fill="#48475c" d="M0.523 4.8h3.734v1.067h-3.733v-1.067z"></path>
<path fill="#48475c" d="M27.19 0h4.8v1.067h-4.8v-1.067z"></path>
<path fill="#48475c" d="M27.19 2.133h4.8v1.067h-4.8v-1.067z"></path>
<path fill="#48475c" d="M27.19 4.267h2.667v1.067h-2.667v-1.067z"></path>
</svg>
