<svg aria-hidden="true" style="position: absolute; width: 0; height: 0; overflow: hidden;" version="1.1" xmlns="http://www.w3.org/2000/svg" xmlns:xlink="http://www.w3.org/1999/xlink">
<defs>
<symbol id="icon-analytics" viewBox="0 0 27 32">
<path fill="#48475c" style="fill: var(--color1, #48475c)" d="M12.266 15.467h5.333v1.066h-5.333v-1.066z"></path>
<path fill="#48475c" style="fill: var(--color1, #48475c)" d="M12.266 17.601h3.2v1.067h-3.2v-1.067z"></path>
<path fill="#ff7657" style="fill: var(--color2, #ff7657)" d="M26.83 26.37q-0.036-0.040-0.076-0.076v0l-2.756-2.758v-14.941c0-0.012-0.006-0.022-0.007-0.033-0.003-0.050-0.013-0.096-0.028-0.14l0.001 0.003c-0.007-0.021-0.013-0.037-0.020-0.053l0.001 0.003c-0.028-0.061-0.064-0.112-0.108-0.156l-8.055-8.060c-0.045-0.045-0.098-0.081-0.157-0.107l-0.003-0.001c-0.012-0.004-0.027-0.009-0.043-0.013l-0.003-0.001c-0.042-0.016-0.091-0.026-0.142-0.029l-0.001-0c-0.010 0-0.019-0.006-0.029-0.006h-10.604c-0.293 0.001-0.531 0.238-0.532 0.532v3.733h-1.601c-0.295 0-0.533 0.239-0.533 0.533v0 2.133h-1.6c-0.295 0-0.533 0.239-0.533 0.533v0 24c0 0.295 0.239 0.533 0.533 0.533v0h18.132c0.294-0 0.533-0.239 0.533-0.533v0-2.135h1.6c0.295 0 0.533-0.239 0.533-0.533v0-2.131h1.51l1.769 1.769c0.278 0.298 0.673 0.484 1.111 0.484 0.838 0 1.517-0.679 1.517-1.517 0-0.399-0.154-0.763-0.407-1.034l0.001 0.001zM15.938 1.822l6.239 6.239h-6.239v-6.239zM18.131 30.933h-17.063v-22.933h1.067v20.8c0.001 0.293 0.239 0.531 0.532 0.532h15.466zM20.264 28.267h-17.065v-22.933h1.067v20.799c0 0.295 0.239 0.533 0.533 0.533h15.465zM5.333 25.6v-24.532h9.538v7.526c0 0.295 0.239 0.533 0.533 0.533v0h7.527v13.341l-2.070-2.070c0.565-0.979 0.898-2.152 0.898-3.404 0-3.812-3.090-6.902-6.902-6.902s-6.902 3.090-6.902 6.902c0 3.812 3.090 6.902 6.902 6.902 1.484 0 2.858-0.468 3.983-1.265l-0.022 0.014 2.954 2.954h-16.44zM20.692 17.014c0 3.21-2.603 5.813-5.813 5.813s-5.813-2.603-5.813-5.813c0-3.21 2.603-5.813 5.813-5.813 0 0 0 0 0 0v0c3.209 0.004 5.809 2.604 5.813 5.813v0zM26.001 27.682c-0.081 0.081-0.194 0.132-0.318 0.132-0 0-0.001 0-0.001 0h0c-0.001 0-0.002 0-0.002 0-0.124 0-0.236-0.051-0.317-0.132l-5.649-5.65 0.637-0.637 2.582 2.581v0.023h0.023l3.045 3.045c0.082 0.082 0.133 0.194 0.133 0.319s-0.051 0.237-0.132 0.319v0z"></path>
<path fill="#ff7657" style="fill: var(--color2, #ff7657)" d="M14.879 11.948c-2.798 0-5.067 2.268-5.067 5.067s2.268 5.067 5.067 5.067c2.798 0 5.067-2.268 5.067-5.067v0c0-2.798-2.268-5.067-5.067-5.067v0zM14.879 21.014c-2.209 0-4-1.791-4-4s1.791-4 4-4c2.209 0 4 1.791 4 4v0c0 2.209-1.791 4-4 4v0z"></path>
</symbol>
<symbol id="icon-calculator" viewBox="0 0 30 32">
<path fill="#fff" style="fill: var(--color3, #fff)" d="M14.933 11.733h-13.333c-0.884 0-1.6 0.716-1.6 1.6v0 17.067c0 0.884 0.716 1.6 1.6 1.6v0h13.333c0.884 0 1.6-0.716 1.6-1.6v0-17.067c0-0.884-0.716-1.6-1.6-1.6v0zM15.467 30.4c0 0.295-0.239 0.533-0.533 0.533v0h-13.333c-0.295 0-0.533-0.239-0.533-0.533v0-17.067c0-0.295 0.239-0.533 0.533-0.533v0h13.333c0.295 0 0.533 0.239 0.533 0.533v0z"></path>
<path fill="#fff" style="fill: var(--color3, #fff)" d="M13.867 13.867h-11.2c-0.295 0-0.533 0.239-0.533 0.533v0 3.2c0 0.295 0.239 0.533 0.533 0.533h11.2c0.295 0 0.533-0.239 0.533-0.533v0-3.2c0-0.295-0.239-0.533-0.533-0.533v0zM13.333 17.067h-10.133v-2.133h10.133z"></path>
<path fill="#fff" style="fill: var(--color3, #fff)" d="M5.333 19.2h-2.667c-0.295 0-0.533 0.239-0.533 0.533v0 2.133c0 0.295 0.239 0.533 0.533 0.533v0h2.667c0.295 0 0.533-0.239 0.533-0.533v-2.133c0-0.295-0.239-0.533-0.533-0.533v0zM4.8 21.333h-1.6v-1.067h1.6z"></path>
<path fill="#fff" style="fill: var(--color3, #fff)" d="M9.6 19.2h-2.667c-0.295 0-0.533 0.239-0.533 0.533v0 2.133c0 0.295 0.239 0.533 0.533 0.533v0h2.667c0.295 0 0.533-0.239 0.533-0.533v-2.133c0-0.295-0.239-0.533-0.533-0.533v0zM9.067 21.333h-1.6v-1.067h1.6z"></path>
<path fill="#fff" style="fill: var(--color3, #fff)" d="M13.867 19.2h-2.667c-0.295 0-0.533 0.239-0.533 0.533v0 2.133c0 0.295 0.239 0.533 0.533 0.533v0h2.667c0.295 0 0.533-0.239 0.533-0.533v-2.133c0-0.295-0.239-0.533-0.533-0.533v0zM13.333 21.333h-1.6v-1.067h1.6z"></path>
<path fill="#fff" style="fill: var(--color3, #fff)" d="M5.333 22.933h-2.667c-0.295 0-0.533 0.239-0.533 0.533v0 2.133c0 0.295 0.239 0.533 0.533 0.533v0h2.667c0.295 0 0.533-0.239 0.533-0.533v-2.133c0-0.295-0.239-0.533-0.533-0.533v0zM4.8 25.067h-1.6v-1.067h1.6z"></path>
<path fill="#fff" style="fill: var(--color3, #fff)" d="M9.6 22.933h-2.667c-0.295 0-0.533 0.239-0.533 0.533v0 2.133c0 0.295 0.239 0.533 0.533 0.533v0h2.667c0.295 0 0.533-0.239 0.533-0.533v-2.133c0-0.295-0.239-0.533-0.533-0.533v0zM9.067 25.067h-1.6v-1.067h1.6z"></path>
<path fill="#fff" style="fill: var(--color3, #fff)" d="M13.867 22.933h-2.667c-0.295 0-0.533 0.239-0.533 0.533v0 5.867c0 0.295 0.239 0.533 0.533 0.533v0h2.667c0.295 0 0.533-0.239 0.533-0.533v0-5.867c0-0.295-0.239-0.533-0.533-0.533v0zM13.333 28.8h-1.6v-4.8h1.6z"></path>
<path fill="#fff" style="fill: var(--color3, #fff)" d="M5.333 26.667h-2.667c-0.295 0-0.533 0.239-0.533 0.533v0 2.133c0 0.295 0.239 0.533 0.533 0.533v0h2.667c0.295 0 0.533-0.239 0.533-0.533v-2.133c0-0.295-0.239-0.533-0.533-0.533v0zM4.8 28.8h-1.6v-1.067h1.6z"></path>
<path fill="#fff" style="fill: var(--color3, #fff)" d="M9.6 26.667h-2.667c-0.295 0-0.533 0.239-0.533 0.533v0 2.133c0 0.295 0.239 0.533 0.533 0.533v0h2.667c0.295 0 0.533-0.239 0.533-0.533v-2.133c0-0.295-0.239-0.533-0.533-0.533v0zM9.067 28.8h-1.6v-1.067h1.6z"></path>
<path fill="#fff" style="fill: var(--color3, #fff)" d="M29.825 9.395c-0.028-0.067-0.067-0.124-0.115-0.172l-9.066-9.066c-0.048-0.048-0.105-0.087-0.169-0.114l-0.003-0.001c-0.061-0.026-0.131-0.042-0.205-0.042h-14.4c-0.295 0-0.533 0.239-0.533 0.533v9.6c0.007 0.289 0.243 0.521 0.533 0.521s0.527-0.232 0.533-0.521v-9.067h13.333v8.534c0 0.295 0.239 0.533 0.533 0.533v0h8.532v20.8h-10.665c-0.004-0-0.008-0-0.012-0-0.295 0-0.533 0.239-0.533 0.533s0.239 0.533 0.533 0.533c0.004 0 0.009-0 0.013-0h11.199c0.295 0 0.533-0.239 0.533-0.533v0-21.866c-0-0.074-0.016-0.145-0.043-0.209l0.001 0.003zM20.8 9.066v-7.245l7.246 7.245z"></path>
<path fill="#fff" style="fill: var(--color3, #fff)" d="M18.133 4.8h-10.133c-0.289 0.007-0.521 0.243-0.521 0.533s0.232 0.527 0.521 0.533h10.134c0.289-0.007 0.521-0.243 0.521-0.533s-0.232-0.527-0.521-0.533h-0.001z"></path>
<path fill="#fff" style="fill: var(--color3, #fff)" d="M18.133 9.067h-10.133c-0.004-0-0.008-0-0.012-0-0.295 0-0.533 0.239-0.533 0.533s0.239 0.533 0.533 0.533c0.004 0 0.009-0 0.013-0h10.133c0.004 0 0.008 0 0.012 0 0.295 0 0.533-0.239 0.533-0.533s-0.239-0.533-0.533-0.533c-0.004 0-0.009 0-0.013 0h0.001z"></path>
<path fill="#fff" style="fill: var(--color3, #fff)" d="M27.2 13.333h-9.066c-0.289 0.007-0.521 0.243-0.521 0.533s0.232 0.527 0.521 0.533h9.066c0.289-0.007 0.521-0.243 0.521-0.533s-0.232-0.527-0.521-0.533h-0.001z"></path>
<path fill="#fff" style="fill: var(--color3, #fff)" d="M27.2 17.6h-9.066c-0.289 0.007-0.521 0.243-0.521 0.533s0.232 0.526 0.521 0.533h9.066c0.289-0.007 0.521-0.243 0.521-0.533s-0.232-0.526-0.521-0.533h-0.001z"></path>
<path fill="#fff" style="fill: var(--color3, #fff)" d="M27.2 21.867h-9.066c-0.289 0.007-0.521 0.243-0.521 0.533s0.232 0.526 0.521 0.533h9.066c0.289-0.007 0.521-0.243 0.521-0.533s-0.232-0.526-0.521-0.533h-0.001z"></path>
<path fill="#fff" style="fill: var(--color3, #fff)" d="M27.2 26.133h-9.066c-0.289 0.007-0.521 0.243-0.521 0.533s0.232 0.526 0.521 0.533h9.066c0.289-0.007 0.521-0.243 0.521-0.533s-0.232-0.526-0.521-0.533h-0.001z"></path>
</symbol>
<symbol id="icon-icon1" viewBox="0 0 29 32">
<path fill="#ff7657" style="fill: var(--color2, #ff7657)" d="M29.33 20.766c-0.003-0.050-0.013-0.097-0.028-0.14l0.001 0.003c-0.006-0.017-0.010-0.033-0.018-0.050-0.028-0.061-0.064-0.112-0.108-0.156l-3.199-3.199c-0.044-0.044-0.096-0.080-0.153-0.106l-0.003-0.001c-0.016-0.007-0.032-0.011-0.048-0.017-0.041-0.015-0.089-0.025-0.139-0.028l-0.002-0c-0.011 0-0.021-0.006-0.032-0.006h-4.264v-9.065h3.199c0.294-0 0.533-0.239 0.533-0.533 0-0.177-0.087-0.334-0.22-0.431l-0.002-0.001-9.599-6.934c-0.086-0.063-0.195-0.101-0.312-0.101s-0.226 0.038-0.314 0.102l0.002-0.001-9.6 6.934c-0.135 0.098-0.221 0.255-0.221 0.432 0 0.295 0.239 0.533 0.533 0.533h3.199v9.147c-0.319-0.049-0.689-0.078-1.065-0.079h-0.002c-0.001 0-0.002 0-0.004 0-4.124 0-7.467 3.343-7.467 7.467s3.343 7.467 7.467 7.467c1.751 0 3.362-0.603 4.635-1.613l-0.015 0.012h6.051v1.067c0 0.295 0.239 0.533 0.533 0.533v0h10.133c0.295 0 0.533-0.239 0.533-0.533v0-10.667c0-0.012-0.006-0.022-0.006-0.033zM26.137 18.887l1.379 1.379h-1.379zM7.47 18.133c0.007-0 0.015-0 0.023-0 2.66 0 4.939 1.63 5.893 3.945l0.015 0.042-5.668 1.772-2.794-5.236c0.746-0.33 1.616-0.522 2.53-0.523h0zM13.718 23.14c0.097 0.418 0.152 0.897 0.152 1.39 0 0.001 0 0.002 0 0.004v-0c0 0.002 0 0.004 0 0.006 0 0.853-0.169 1.666-0.477 2.408l0.015-0.042-4.517-2.258 0.724-0.227zM4.143 30c-1.855-1.142-3.074-3.161-3.074-5.465 0-0.001 0-0.001 0-0.002v0c0-0.001 0-0.002 0-0.003 0-2.244 1.156-4.217 2.905-5.358l0.025-0.015 3.004 5.632c0.009 0.015 0.021 0.028 0.031 0.042 0.019 0.029 0.038 0.054 0.060 0.078l-0-0 0.007 0.008c0.011 0.009 0.022 0.018 0.035 0.026l0.001 0.001c0.023 0.019 0.049 0.037 0.077 0.052l0.003 0.001c0.005 0.003 0.009 0.008 0.015 0.011l5.7 2.851c-1.142 1.854-3.161 3.072-5.464 3.072-1.229 0-2.376-0.346-3.351-0.947l0.028 0.016zM18.136 17.598v11.735h-4.956c0.359-0.426 0.678-0.906 0.94-1.419l0.020-0.043c0.502-0.975 0.796-2.129 0.796-3.35 0-3.36-2.224-6.2-5.281-7.128l-0.053-0.014v-9.912c0-0.295-0.239-0.533-0.533-0.533v0h-2.085l7.952-5.742 7.95 5.742h-2.085c-0.295 0-0.533 0.239-0.533 0.533v0 9.6h-1.599c-0.294 0-0.533 0.239-0.533 0.533v0zM28.27 30.933h-9.065v-12.8h5.867v2.667c0 0 0 0 0 0 0 0.294 0.238 0.533 0.532 0.533h2.667z"></path>
<path fill="#48475c" style="fill: var(--color1, #48475c)" d="M20.27 19.2h3.733v1.067h-3.733v-1.067z"></path>
<path fill="#48475c" style="fill: var(--color1, #48475c)" d="M20.27 21.333h3.733v1.067h-3.733v-1.067z"></path>
<path fill="#48475c" style="fill: var(--color1, #48475c)" d="M26.88 21.91v0c-0.062-0.027-0.134-0.043-0.21-0.043-0.219 0-0.407 0.131-0.489 0.32l-0.001 0.003-1.387 3.235-2.206-0.981c-0.064-0.029-0.138-0.046-0.216-0.046-0.212 0-0.395 0.124-0.481 0.303l-0.001 0.003-1.565 3.333c-0.032 0.066-0.050 0.144-0.050 0.227 0 0.212 0.124 0.395 0.303 0.481l0.003 0.001c0.066 0.032 0.143 0.050 0.224 0.051h0c0.212-0 0.395-0.124 0.481-0.303l0.001-0.003 1.344-2.86 2.223 0.988c0.064 0.029 0.138 0.046 0.216 0.046 0.216 0 0.402-0.129 0.486-0.314l0.001-0.003 0.003-0.006 1.6-3.733c0.027-0.061 0.042-0.133 0.042-0.208 0-0.218-0.131-0.406-0.319-0.489l-0.003-0.001z"></path>
<path fill="#48475c" style="fill: var(--color1, #48475c)" d="M24.003 28.8h3.2v1.067h-3.2v-1.067z"></path>
<path fill="#48475c" style="fill: var(--color1, #48475c)" d="M0.003 9.067h3.733v1.067h-3.733v-1.067z"></path>
<path fill="#48475c" style="fill: var(--color1, #48475c)" d="M0.003 11.2h3.733v1.067h-3.733v-1.067z"></path>
<path fill="#48475c" style="fill: var(--color1, #48475c)" d="M0.003 13.333h3.733v1.067h-3.733v-1.067z"></path>
<path fill="#48475c" style="fill: var(--color1, #48475c)" d="M25.603 1.6h3.733v1.067h-3.733v-1.067z"></path>
<path fill="#48475c" style="fill: var(--color1, #48475c)" d="M25.603 3.733h3.733v1.067h-3.733v-1.067z"></path>
</symbol>
<symbol id="icon-money" viewBox="0 0 33 32">
<path fill="#ff7657" style="fill: var(--color2, #ff7657)" d="M28.127 10.51h-27.654c-0 0-0 0-0 0-0.261 0-0.473 0.212-0.473 0.473v13.276c0 0 0 0 0 0 0 0.261 0.212 0.473 0.473 0.473h18.804c0.262 0 0.474-0.212 0.474-0.474s-0.212-0.474-0.474-0.474v0h-18.329v-12.326h26.704v1.185c0 0 0 0 0 0 0 0.261 0.212 0.473 0.473 0.473h0c0 0 0 0 0 0 0.261 0 0.473-0.212 0.473-0.473v-1.66c0 0 0 0 0 0 0-0.261-0.211-0.472-0.471-0.473h-0z"></path>
<path fill="#ff7657" style="fill: var(--color2, #ff7657)" d="M24.912 8.309l-22.122-4.976c-0.031-0.007-0.067-0.012-0.104-0.012-0.225 0-0.414 0.157-0.462 0.368l-0.001 0.003-1.106 4.977c-0.007 0.031-0.011 0.066-0.011 0.103 0 0.262 0.212 0.474 0.474 0.474 0.225 0 0.414-0.157 0.462-0.368l0.001-0.003 1.003-4.513 21.657 4.873c0.030 0.007 0.065 0.012 0.101 0.012 0.001 0 0.002 0 0.003 0h-0c0.002 0 0.004 0 0.006 0 0.262 0 0.474-0.212 0.474-0.474 0-0.227-0.159-0.416-0.372-0.463l-0.003-0.001z"></path>
<path fill="#ff7657" style="fill: var(--color2, #ff7657)" d="M22.225 5.567l-13.273-5.53c-0.054-0.023-0.116-0.036-0.182-0.036-0.185 0-0.345 0.105-0.424 0.259l-0.001 0.003-1.106 2.212c-0.036 0.065-0.057 0.143-0.057 0.226 0 0.263 0.213 0.476 0.476 0.476 0.18 0 0.336-0.1 0.417-0.247l0.001-0.002c0.005-0.009 0.010-0.018 0.014-0.028v0l0.908-1.816 12.861 5.36c0.056 0.025 0.121 0.040 0.19 0.040 0.262 0 0.475-0.213 0.475-0.475 0-0.199-0.122-0.369-0.296-0.44l-0.003-0.001z"></path>
<path fill="#48475c" style="fill: var(--color1, #48475c)" d="M22.561 12.722h-4.389c-0.262 0-0.474 0.212-0.474 0.474s0.212 0.474 0.474 0.474v0h4.39c0.262 0 0.474-0.212 0.474-0.474s-0.212-0.474-0.474-0.474v0z"></path>
<path fill="#ff7657" style="fill: var(--color2, #ff7657)" d="M13.747 12.754c-2.688 0-4.867 2.179-4.867 4.867s2.179 4.867 4.867 4.867c2.688 0 4.867-2.179 4.867-4.867v0c0-2.688-2.179-4.867-4.867-4.867v0zM13.747 21.603c-2.199 0-3.982-1.783-3.982-3.982s1.783-3.982 3.982-3.982c2.199 0 3.982 1.783 3.982 3.982v0c0 2.199-1.783 3.982-3.982 3.982v0z"></path>
<path fill="#ff7657" style="fill: var(--color2, #ff7657)" d="M27.020 14.302c-2.931 0-6.083 0.693-6.083 2.212v13.273c0 1.52 3.152 2.212 6.083 2.212s6.083-0.693 6.083-2.212v-13.273c0.002-1.52-3.152-2.212-6.083-2.212zM31.997 29.779c-0.084 0.307-1.742 1.115-4.977 1.115s-4.894-0.807-4.977-1.106v-0.869c1.177 0.593 3.121 0.869 4.977 0.869s3.802-0.279 4.977-0.87zM31.997 27.567c-0.084 0.307-1.742 1.115-4.977 1.115s-4.894-0.807-4.977-1.106v-0.869c1.177 0.593 3.121 0.869 4.977 0.869s3.802-0.279 4.977-0.87zM31.997 25.355c-0.084 0.307-1.742 1.115-4.977 1.115s-4.894-0.807-4.977-1.106v-0.869c1.177 0.593 3.121 0.869 4.977 0.869s3.802-0.279 4.977-0.87zM31.997 23.142c-0.084 0.307-1.742 1.115-4.977 1.115s-4.894-0.807-4.977-1.106v-0.869c1.177 0.593 3.121 0.869 4.977 0.869s3.802-0.279 4.977-0.87zM31.997 20.93c-0.084 0.307-1.742 1.115-4.977 1.115s-4.894-0.807-4.977-1.106v-0.869c1.177 0.59 3.121 0.869 4.977 0.869s3.802-0.279 4.977-0.87zM31.997 18.718c-0.084 0.307-1.742 1.115-4.977 1.115s-4.894-0.807-4.977-1.106v-0.869c1.177 0.59 3.121 0.869 4.977 0.869s3.802-0.279 4.977-0.87zM27.020 17.62c-3.23 0-4.888-0.805-4.977-1.096v-0.003c0.089-0.308 1.747-1.113 4.977-1.113 3.208 0 4.867 0.793 4.977 1.106-0.111 0.314-1.77 1.107-4.977 1.107z"></path>
<path fill="#48475c" style="fill: var(--color1, #48475c)" d="M9.323 21.571h-4.181l-1.982-2.168v-3.595l2.189-2.137h3.974c0.262 0 0.474-0.212 0.474-0.474s-0.212-0.474-0.474-0.474v0h-4.166c-0 0-0 0-0.001 0-0.129 0-0.246 0.051-0.331 0.135l0-0-2.47 2.41c-0.089 0.103-0.143 0.238-0.143 0.386 0 0 0 0.001 0 0.001v-0 3.933c0 0 0 0 0 0 0 0.123 0.047 0.235 0.124 0.32l-0-0 2.247 2.458c0.087 0.095 0.211 0.154 0.35 0.154 0 0 0 0 0 0h4.39c0.262 0 0.474-0.212 0.474-0.474s-0.212-0.474-0.474-0.474v0z"></path>
<path fill="#ff7657" style="fill: var(--color2, #ff7657)" d="M14.024 17.068h-0.553c-0.172 0-0.277-0.096-0.277-0.138s0.104-0.138 0.277-0.138h1.383c0.004 0 0.009 0 0.014 0 0.306 0 0.553-0.248 0.553-0.553s-0.248-0.553-0.553-0.553c-0.005 0-0.010 0-0.015 0l0.001-0h-0.553c-0.008-0.299-0.253-0.539-0.553-0.539s-0.545 0.24-0.553 0.538l-0 0.001v0.025c-0.61 0.089-1.077 0.594-1.106 1.214l-0 0.003c0.039 0.698 0.615 1.249 1.319 1.249 0.022 0 0.045-0.001 0.067-0.002l-0.003 0h0.553c0.172 0 0.277 0.096 0.277 0.138s-0.104 0.138-0.277 0.138h-1.383c-0.299 0.008-0.539 0.253-0.539 0.553s0.24 0.545 0.538 0.553l0.001 0h0.553c-0 0.004-0 0.009-0 0.014 0 0.305 0.248 0.553 0.553 0.553s0.553-0.248 0.553-0.553c0-0.005-0-0.010-0-0.015l0 0.001v-0.025c0.61-0.089 1.077-0.594 1.106-1.214l0-0.003c-0.039-0.698-0.615-1.249-1.319-1.249-0.022 0-0.045 0.001-0.067 0.002l0.003-0z"></path>
</symbol>
<symbol id="icon-pie-chart" viewBox="0 0 32 32">
<path fill="#ff7657" style="fill: var(--color2, #ff7657)" d="M20.93 27.653l-8.14-8.141v-11.512c0-0.295-0.239-0.533-0.533-0.533v0c-0.001 0-0.001 0-0.002 0-3.777 0-7.154 1.71-9.401 4.398l-0.016 0.019-0.716-0.874v-3.543h-1.066v3.733c0 0 0 0 0 0 0 0.129 0.045 0.246 0.121 0.338l-0.001-0.001 0.999 1.219c-1.361 1.947-2.174 4.364-2.174 6.972 0 6.773 5.491 12.263 12.263 12.263 3.383 0 6.446-1.37 8.665-3.585l-0 0c0.096-0.097 0.156-0.23 0.156-0.377s-0.060-0.281-0.156-0.377v0zM12.256 30.933c-0.002 0-0.004 0-0.006 0-6.182 0-11.194-5.012-11.194-11.194 0-2.278 0.68-4.396 1.848-6.164l-0.026 0.042 3.097 3.787 0.827-0.675-3.274-4c1.957-2.43 4.875-4.018 8.168-4.183l0.026-0.001v11.188c0 0.147 0.060 0.281 0.156 0.377l7.91 7.912c-1.97 1.805-4.607 2.912-7.502 2.912-0.011 0-0.022-0-0.033-0h0.002z"></path>
<path fill="#ff7657" style="fill: var(--color2, #ff7657)" d="M25.59 1.067v-1.067h-4.265c-0.001 0-0.002 0-0.003 0-0.208 0-0.388 0.119-0.476 0.292l-0.001 0.003-2.116 4.239c-1.287-0.504-2.778-0.797-4.336-0.8h-0.001c-0.295 0-0.533 0.239-0.533 0.533v11.733c0 0 0 0 0 0 0 0.221 0.134 0.41 0.325 0.491l0.004 0.001c0.060 0.026 0.13 0.041 0.203 0.041 0 0 0.001 0 0.001 0h-0c0.147-0 0.281-0.060 0.377-0.156l8.297-8.297c0.097-0.097 0.156-0.23 0.156-0.377s-0.060-0.281-0.156-0.377v0c-0.953-0.949-2.060-1.742-3.282-2.339l-0.073-0.032 1.944-3.888zM21.92 7.712l-6.998 7.001v-9.9c1.21 0.060 2.344 0.304 3.402 0.703l-0.077-0.025-1.139 2.271 0.955 0.477 1.166-2.333c1.029 0.498 1.915 1.101 2.699 1.814l-0.009-0.008z"></path>
<path fill="#48475c" style="fill: var(--color1, #48475c)" d="M26.123 28.8h5.867v1.067h-5.867v-1.067z"></path>
<path fill="#48475c" style="fill: var(--color1, #48475c)" d="M26.123 30.933h5.867v1.067h-5.867v-1.067z"></path>
<path fill="#ff7657" style="fill: var(--color2, #ff7657)" d="M28.946 21.357l-1.911-0.587c0.094-0.558 0.15-1.204 0.155-1.862l0-0.005c0-0.009 0-0.021 0-0.032 0-3.377-1.374-6.434-3.594-8.641l-0.001-0.001c-0.097-0.097-0.23-0.156-0.377-0.156s-0.281 0.060-0.377 0.156v0l-8.297 8.296c-0.097 0.097-0.156 0.23-0.156 0.377s0.060 0.281 0.156 0.377l8.299 8.295c0.097 0.097 0.23 0.156 0.377 0.156s0.281-0.060 0.377-0.156v0c1.541-1.539 2.672-3.49 3.213-5.673l0.018-0.084 1.429 0.44v4.94h1.067v-5.332c-0-0.239-0.157-0.441-0.374-0.509l-0.004-0.001zM26.005 20.449l-3.993-1.227-0.313 1.020 4.107 1.264c-0.461 1.919-1.366 3.583-2.603 4.939l0.008-0.009-7.534-7.534 7.534-7.533c1.805 1.97 2.912 4.606 2.912 7.501 0 0.011-0 0.023-0 0.034v-0.002c-0.004 0.549-0.047 1.085-0.125 1.609l0.008-0.062z"></path>
<path fill="#48475c" style="fill: var(--color1, #48475c)" d="M0.523 0.533h6.933v1.067h-6.933v-1.067z"></path>
<path fill="#48475c" style="fill: var(--color1, #48475c)" d="M0.523 2.667h6.933v1.067h-6.933v-1.067z"></path>
<path fill="#48475c" style="fill: var(--color1, #48475c)" d="M0.523 4.8h3.734v1.067h-3.733v-1.067z"></path>
<path fill="#48475c" style="fill: var(--color1, #48475c)" d="M27.19 0h4.8v1.067h-4.8v-1.067z"></path>
<path fill="#48475c" style="fill: var(--color1, #48475c)" d="M27.19 2.133h4.8v1.067h-4.8v-1.067z"></path>
<path fill="#48475c" style="fill: var(--color1, #48475c)" d="M27.19 4.267h2.667v1.067h-2.667v-1.067z"></path>
</symbol>
<symbol id="icon-puzzle" viewBox="0 0 32 32">
<path fill="#ff7657" style="fill: var(--color2, #ff7657)" d="M22.027 18.133c-0.295 0-0.533 0.239-0.533 0.533v0c0 1.306-1.059 2.365-2.365 2.365s-2.365-1.059-2.365-2.365v0c0-0.295-0.239-0.533-0.533-0.533v0h-2.364v-1.927c1.685-0.265 2.959-1.707 2.959-3.447s-1.273-3.181-2.939-3.444l-0.020-0.003v-3.446c0-0.295-0.239-0.533-0.533-0.533v0h-12.8c-0.295 0-0.533 0.239-0.533 0.533v0 25.6c0 0.295 0.239 0.533 0.533 0.533v0h25.6c0.295 0 0.533-0.239 0.533-0.533v-13.334zM1.067 6.4h11.733v3.405c0 0.295 0.239 0.533 0.533 0.533v0c1.324 0.017 2.391 1.094 2.391 2.421s-1.067 2.404-2.39 2.421h-0.002c-0.295 0-0.533 0.239-0.533 0.533v0 2.42h-1.927c-0.265-1.685-1.707-2.959-3.447-2.959s-3.181 1.273-3.444 2.939l-0.003 0.020h-2.912zM12.8 30.933h-11.733v-11.733h3.405c0.295 0 0.533-0.239 0.533-0.533v0c0.037-1.309 1.106-2.355 2.421-2.355s2.384 1.047 2.42 2.352l0 0.003c0 0.295 0.239 0.533 0.533 0.533v0h2.42v1.871c-1.678 0.239-2.953 1.667-2.953 3.391s1.276 3.152 2.935 3.389l0.018 0.002zM25.6 30.933h-11.733v-3.573c0-0.295-0.239-0.533-0.533-0.533v0c-1.306 0-2.365-1.059-2.365-2.365s1.059-2.365 2.365-2.365v0c0.295 0 0.533-0.239 0.533-0.533v0-2.364h1.873c0.267 1.653 1.683 2.9 3.39 2.9s3.124-1.247 3.388-2.88l0.003-0.020h3.080z"></path>
<path fill="#ff7657" style="fill: var(--color2, #ff7657)" d="M31.467 0h-12.8c-0.295 0-0.533 0.239-0.533 0.533v0 3.938c0 0.295 0.239 0.533 0.533 0.533v0c1.309 0.037 2.355 1.106 2.355 2.421s-1.047 2.384-2.352 2.42l-0.003 0c-0.295 0-0.533 0.239-0.533 0.533v2.953c0 0.295 0.239 0.533 0.533 0.533v0h2.405c0.239 1.678 1.667 2.953 3.391 2.953s3.152-1.276 3.389-2.935l0.002-0.018h3.612c0.295 0 0.533-0.239 0.533-0.533v0-12.8c0-0.295-0.239-0.533-0.533-0.533-0 0-0 0-0 0h0zM30.933 12.8h-3.573c-0.295 0-0.533 0.239-0.533 0.533v0c0 0.013 0 0.029 0 0.044 0 1.306-1.059 2.365-2.365 2.365-1.287 0-2.333-1.027-2.365-2.306l-0-0.003q0-0.050 0-0.1c0-0.295-0.239-0.533-0.533-0.533v0h-2.364v-1.929c1.657-0.296 2.898-1.725 2.898-3.445s-1.241-3.149-2.877-3.442l-0.021-0.003v-2.914h11.733z"></path>
<path fill="#48475c" style="fill: var(--color1, #48475c)" d="M2.667 7.467h4.267v1.067h-4.267v-1.067z"></path>
<path fill="#48475c" style="fill: var(--color1, #48475c)" d="M2.667 9.6h4.267v1.067h-4.267v-1.067z"></path>
<path fill="#48475c" style="fill: var(--color1, #48475c)" d="M2.667 11.733h2.133v1.067h-2.133v-1.067z"></path>
<path fill="#48475c" style="fill: var(--color1, #48475c)" d="M17.067 24h4.8v1.067h-4.8v-1.067z"></path>
<path fill="#48475c" style="fill: var(--color1, #48475c)" d="M17.067 26.133h4.8v1.067h-4.8v-1.067z"></path>
<path fill="#48475c" style="fill: var(--color1, #48475c)" d="M17.067 28.267h2.667v1.067h-2.667v-1.067z"></path>
</symbol>
</defs>
</svg>
