<!-- Generated by IcoMoon.io -->
<svg version="1.1" xmlns="http://www.w3.org/2000/svg" width="29" height="32" viewBox="0 0 29 32">
<title>icon1</title>
<path fill="#ff7657" d="M29.33 20.766c-0.003-0.050-0.013-0.097-0.028-0.14l0.001 0.003c-0.006-0.017-0.010-0.033-0.018-0.050-0.028-0.061-0.064-0.112-0.108-0.156l-3.199-3.199c-0.044-0.044-0.096-0.080-0.153-0.106l-0.003-0.001c-0.016-0.007-0.032-0.011-0.048-0.017-0.041-0.015-0.089-0.025-0.139-0.028l-0.002-0c-0.011 0-0.021-0.006-0.032-0.006h-4.264v-9.065h3.199c0.294-0 0.533-0.239 0.533-0.533 0-0.177-0.087-0.334-0.22-0.431l-0.002-0.001-9.599-6.934c-0.086-0.063-0.195-0.101-0.312-0.101s-0.226 0.038-0.314 0.102l0.002-0.001-9.6 6.934c-0.135 0.098-0.221 0.255-0.221 0.432 0 0.295 0.239 0.533 0.533 0.533h3.199v9.147c-0.319-0.049-0.689-0.078-1.065-0.079h-0.002c-0.001 0-0.002 0-0.004 0-4.124 0-7.467 3.343-7.467 7.467s3.343 7.467 7.467 7.467c1.751 0 3.362-0.603 4.635-1.613l-0.015 0.012h6.051v1.067c0 0.295 0.239 0.533 0.533 0.533v0h10.133c0.295 0 0.533-0.239 0.533-0.533v0-10.667c0-0.012-0.006-0.022-0.006-0.033zM26.137 18.887l1.379 1.379h-1.379zM7.47 18.133c0.007-0 0.015-0 0.023-0 2.66 0 4.939 1.63 5.893 3.945l0.015 0.042-5.668 1.772-2.794-5.236c0.746-0.33 1.616-0.522 2.53-0.523h0zM13.718 23.14c0.097 0.418 0.152 0.897 0.152 1.39 0 0.001 0 0.002 0 0.004v-0c0 0.002 0 0.004 0 0.006 0 0.853-0.169 1.666-0.477 2.408l0.015-0.042-4.517-2.258 0.724-0.227zM4.143 30c-1.855-1.142-3.074-3.161-3.074-5.465 0-0.001 0-0.001 0-0.002v0c0-0.001 0-0.002 0-0.003 0-2.244 1.156-4.217 2.905-5.358l0.025-0.015 3.004 5.632c0.009 0.015 0.021 0.028 0.031 0.042 0.019 0.029 0.038 0.054 0.060 0.078l-0-0 0.007 0.008c0.011 0.009 0.022 0.018 0.035 0.026l0.001 0.001c0.023 0.019 0.049 0.037 0.077 0.052l0.003 0.001c0.005 0.003 0.009 0.008 0.015 0.011l5.7 2.851c-1.142 1.854-3.161 3.072-5.464 3.072-1.229 0-2.376-0.346-3.351-0.947l0.028 0.016zM18.136 17.598v11.735h-4.956c0.359-0.426 0.678-0.906 0.94-1.419l0.020-0.043c0.502-0.975 0.796-2.129 0.796-3.35 0-3.36-2.224-6.2-5.281-7.128l-0.053-0.014v-9.912c0-0.295-0.239-0.533-0.533-0.533v0h-2.085l7.952-5.742 7.95 5.742h-2.085c-0.295 0-0.533 0.239-0.533 0.533v0 9.6h-1.599c-0.294 0-0.533 0.239-0.533 0.533v0zM28.27 30.933h-9.065v-12.8h5.867v2.667c0 0 0 0 0 0 0 0.294 0.238 0.533 0.532 0.533h2.667z"></path>
<path fill="#48475c" d="M20.27 19.2h3.733v1.067h-3.733v-1.067z"></path>
<path fill="#48475c" d="M20.27 21.333h3.733v1.067h-3.733v-1.067z"></path>
<path fill="#48475c" d="M26.88 21.91v0c-0.062-0.027-0.134-0.043-0.21-0.043-0.219 0-0.407 0.131-0.489 0.32l-0.001 0.003-1.387 3.235-2.206-0.981c-0.064-0.029-0.138-0.046-0.216-0.046-0.212 0-0.395 0.124-0.481 0.303l-0.001 0.003-1.565 3.333c-0.032 0.066-0.050 0.144-0.050 0.227 0 0.212 0.124 0.395 0.303 0.481l0.003 0.001c0.066 0.032 0.143 0.050 0.224 0.051h0c0.212-0 0.395-0.124 0.481-0.303l0.001-0.003 1.344-2.86 2.223 0.988c0.064 0.029 0.138 0.046 0.216 0.046 0.216 0 0.402-0.129 0.486-0.314l0.001-0.003 0.003-0.006 1.6-3.733c0.027-0.061 0.042-0.133 0.042-0.208 0-0.218-0.131-0.406-0.319-0.489l-0.003-0.001z"></path>
<path fill="#48475c" d="M24.003 28.8h3.2v1.067h-3.2v-1.067z"></path>
<path fill="#48475c" d="M0.003 9.067h3.733v1.067h-3.733v-1.067z"></path>
<path fill="#48475c" d="M0.003 11.2h3.733v1.067h-3.733v-1.067z"></path>
<path fill="#48475c" d="M0.003 13.333h3.733v1.067h-3.733v-1.067z"></path>
<path fill="#48475c" d="M25.603 1.6h3.733v1.067h-3.733v-1.067z"></path>
<path fill="#48475c" d="M25.603 3.733h3.733v1.067h-3.733v-1.067z"></path>
</svg>
