<!-- Generated by IcoMoon.io -->
<svg version="1.1" xmlns="http://www.w3.org/2000/svg" width="33" height="32" viewBox="0 0 33 32">
<title>money</title>
<path fill="#ff7657" d="M28.127 10.51h-27.654c-0 0-0 0-0 0-0.261 0-0.473 0.212-0.473 0.473v13.276c0 0 0 0 0 0 0 0.261 0.212 0.473 0.473 0.473h18.804c0.262 0 0.474-0.212 0.474-0.474s-0.212-0.474-0.474-0.474v0h-18.329v-12.326h26.704v1.185c0 0 0 0 0 0 0 0.261 0.212 0.473 0.473 0.473h0c0 0 0 0 0 0 0.261 0 0.473-0.212 0.473-0.473v-1.66c0 0 0 0 0 0 0-0.261-0.211-0.472-0.471-0.473h-0z"></path>
<path fill="#ff7657" d="M24.912 8.309l-22.122-4.976c-0.031-0.007-0.067-0.012-0.104-0.012-0.225 0-0.414 0.157-0.462 0.368l-0.001 0.003-1.106 4.977c-0.007 0.031-0.011 0.066-0.011 0.103 0 0.262 0.212 0.474 0.474 0.474 0.225 0 0.414-0.157 0.462-0.368l0.001-0.003 1.003-4.513 21.657 4.873c0.030 0.007 0.065 0.012 0.101 0.012 0.001 0 0.002 0 0.003 0h-0c0.002 0 0.004 0 0.006 0 0.262 0 0.474-0.212 0.474-0.474 0-0.227-0.159-0.416-0.372-0.463l-0.003-0.001z"></path>
<path fill="#ff7657" d="M22.225 5.567l-13.273-5.53c-0.054-0.023-0.116-0.036-0.182-0.036-0.185 0-0.345 0.105-0.424 0.259l-0.001 0.003-1.106 2.212c-0.036 0.065-0.057 0.143-0.057 0.226 0 0.263 0.213 0.476 0.476 0.476 0.18 0 0.336-0.1 0.417-0.247l0.001-0.002c0.005-0.009 0.010-0.018 0.014-0.028v0l0.908-1.816 12.861 5.36c0.056 0.025 0.121 0.040 0.19 0.040 0.262 0 0.475-0.213 0.475-0.475 0-0.199-0.122-0.369-0.296-0.44l-0.003-0.001z"></path>
<path fill="#48475c" d="M22.561 12.722h-4.389c-0.262 0-0.474 0.212-0.474 0.474s0.212 0.474 0.474 0.474v0h4.39c0.262 0 0.474-0.212 0.474-0.474s-0.212-0.474-0.474-0.474v0z"></path>
<path fill="#ff7657" d="M13.747 12.754c-2.688 0-4.867 2.179-4.867 4.867s2.179 4.867 4.867 4.867c2.688 0 4.867-2.179 4.867-4.867v0c0-2.688-2.179-4.867-4.867-4.867v0zM13.747 21.603c-2.199 0-3.982-1.783-3.982-3.982s1.783-3.982 3.982-3.982c2.199 0 3.982 1.783 3.982 3.982v0c0 2.199-1.783 3.982-3.982 3.982v0z"></path>
<path fill="#ff7657" d="M27.020 14.302c-2.931 0-6.083 0.693-6.083 2.212v13.273c0 1.52 3.152 2.212 6.083 2.212s6.083-0.693 6.083-2.212v-13.273c0.002-1.52-3.152-2.212-6.083-2.212zM31.997 29.779c-0.084 0.307-1.742 1.115-4.977 1.115s-4.894-0.807-4.977-1.106v-0.869c1.177 0.593 3.121 0.869 4.977 0.869s3.802-0.279 4.977-0.87zM31.997 27.567c-0.084 0.307-1.742 1.115-4.977 1.115s-4.894-0.807-4.977-1.106v-0.869c1.177 0.593 3.121 0.869 4.977 0.869s3.802-0.279 4.977-0.87zM31.997 25.355c-0.084 0.307-1.742 1.115-4.977 1.115s-4.894-0.807-4.977-1.106v-0.869c1.177 0.593 3.121 0.869 4.977 0.869s3.802-0.279 4.977-0.87zM31.997 23.142c-0.084 0.307-1.742 1.115-4.977 1.115s-4.894-0.807-4.977-1.106v-0.869c1.177 0.593 3.121 0.869 4.977 0.869s3.802-0.279 4.977-0.87zM31.997 20.93c-0.084 0.307-1.742 1.115-4.977 1.115s-4.894-0.807-4.977-1.106v-0.869c1.177 0.59 3.121 0.869 4.977 0.869s3.802-0.279 4.977-0.87zM31.997 18.718c-0.084 0.307-1.742 1.115-4.977 1.115s-4.894-0.807-4.977-1.106v-0.869c1.177 0.59 3.121 0.869 4.977 0.869s3.802-0.279 4.977-0.87zM27.020 17.62c-3.23 0-4.888-0.805-4.977-1.096v-0.003c0.089-0.308 1.747-1.113 4.977-1.113 3.208 0 4.867 0.793 4.977 1.106-0.111 0.314-1.77 1.107-4.977 1.107z"></path>
<path fill="#48475c" d="M9.323 21.571h-4.181l-1.982-2.168v-3.595l2.189-2.137h3.974c0.262 0 0.474-0.212 0.474-0.474s-0.212-0.474-0.474-0.474v0h-4.166c-0 0-0 0-0.001 0-0.129 0-0.246 0.051-0.331 0.135l0-0-2.47 2.41c-0.089 0.103-0.143 0.238-0.143 0.386 0 0 0 0.001 0 0.001v-0 3.933c0 0 0 0 0 0 0 0.123 0.047 0.235 0.124 0.32l-0-0 2.247 2.458c0.087 0.095 0.211 0.154 0.35 0.154 0 0 0 0 0 0h4.39c0.262 0 0.474-0.212 0.474-0.474s-0.212-0.474-0.474-0.474v0z"></path>
<path fill="#ff7657" d="M14.024 17.068h-0.553c-0.172 0-0.277-0.096-0.277-0.138s0.104-0.138 0.277-0.138h1.383c0.004 0 0.009 0 0.014 0 0.306 0 0.553-0.248 0.553-0.553s-0.248-0.553-0.553-0.553c-0.005 0-0.010 0-0.015 0l0.001-0h-0.553c-0.008-0.299-0.253-0.539-0.553-0.539s-0.545 0.24-0.553 0.538l-0 0.001v0.025c-0.61 0.089-1.077 0.594-1.106 1.214l-0 0.003c0.039 0.698 0.615 1.249 1.319 1.249 0.022 0 0.045-0.001 0.067-0.002l-0.003 0h0.553c0.172 0 0.277 0.096 0.277 0.138s-0.104 0.138-0.277 0.138h-1.383c-0.299 0.008-0.539 0.253-0.539 0.553s0.24 0.545 0.538 0.553l0.001 0h0.553c-0 0.004-0 0.009-0 0.014 0 0.305 0.248 0.553 0.553 0.553s0.553-0.248 0.553-0.553c0-0.005-0-0.010-0-0.015l0 0.001v-0.025c0.61-0.089 1.077-0.594 1.106-1.214l0-0.003c-0.039-0.698-0.615-1.249-1.319-1.249-0.022 0-0.045 0.001-0.067 0.002l0.003-0z"></path>
</svg>
