<!-- Generated by IcoMoon.io -->
<svg version="1.1" xmlns="http://www.w3.org/2000/svg" width="32" height="32" viewBox="0 0 32 32">
<title>puzzle</title>
<path fill="#ff7657" d="M22.027 18.133c-0.295 0-0.533 0.239-0.533 0.533v0c0 1.306-1.059 2.365-2.365 2.365s-2.365-1.059-2.365-2.365v0c0-0.295-0.239-0.533-0.533-0.533v0h-2.364v-1.927c1.685-0.265 2.959-1.707 2.959-3.447s-1.273-3.181-2.939-3.444l-0.020-0.003v-3.446c0-0.295-0.239-0.533-0.533-0.533v0h-12.8c-0.295 0-0.533 0.239-0.533 0.533v0 25.6c0 0.295 0.239 0.533 0.533 0.533v0h25.6c0.295 0 0.533-0.239 0.533-0.533v-13.334zM1.067 6.4h11.733v3.405c0 0.295 0.239 0.533 0.533 0.533v0c1.324 0.017 2.391 1.094 2.391 2.421s-1.067 2.404-2.39 2.421h-0.002c-0.295 0-0.533 0.239-0.533 0.533v0 2.42h-1.927c-0.265-1.685-1.707-2.959-3.447-2.959s-3.181 1.273-3.444 2.939l-0.003 0.020h-2.912zM12.8 30.933h-11.733v-11.733h3.405c0.295 0 0.533-0.239 0.533-0.533v0c0.037-1.309 1.106-2.355 2.421-2.355s2.384 1.047 2.42 2.352l0 0.003c0 0.295 0.239 0.533 0.533 0.533v0h2.42v1.871c-1.678 0.239-2.953 1.667-2.953 3.391s1.276 3.152 2.935 3.389l0.018 0.002zM25.6 30.933h-11.733v-3.573c0-0.295-0.239-0.533-0.533-0.533v0c-1.306 0-2.365-1.059-2.365-2.365s1.059-2.365 2.365-2.365v0c0.295 0 0.533-0.239 0.533-0.533v0-2.364h1.873c0.267 1.653 1.683 2.9 3.39 2.9s3.124-1.247 3.388-2.88l0.003-0.020h3.080z"></path>
<path fill="#ff7657" d="M31.467 0h-12.8c-0.295 0-0.533 0.239-0.533 0.533v0 3.938c0 0.295 0.239 0.533 0.533 0.533v0c1.309 0.037 2.355 1.106 2.355 2.421s-1.047 2.384-2.352 2.42l-0.003 0c-0.295 0-0.533 0.239-0.533 0.533v2.953c0 0.295 0.239 0.533 0.533 0.533v0h2.405c0.239 1.678 1.667 2.953 3.391 2.953s3.152-1.276 3.389-2.935l0.002-0.018h3.612c0.295 0 0.533-0.239 0.533-0.533v0-12.8c0-0.295-0.239-0.533-0.533-0.533-0 0-0 0-0 0h0zM30.933 12.8h-3.573c-0.295 0-0.533 0.239-0.533 0.533v0c0 0.013 0 0.029 0 0.044 0 1.306-1.059 2.365-2.365 2.365-1.287 0-2.333-1.027-2.365-2.306l-0-0.003q0-0.050 0-0.1c0-0.295-0.239-0.533-0.533-0.533v0h-2.364v-1.929c1.657-0.296 2.898-1.725 2.898-3.445s-1.241-3.149-2.877-3.442l-0.021-0.003v-2.914h11.733z"></path>
<path fill="#48475c" d="M2.667 7.467h4.267v1.067h-4.267v-1.067z"></path>
<path fill="#48475c" d="M2.667 9.6h4.267v1.067h-4.267v-1.067z"></path>
<path fill="#48475c" d="M2.667 11.733h2.133v1.067h-2.133v-1.067z"></path>
<path fill="#48475c" d="M17.067 24h4.8v1.067h-4.8v-1.067z"></path>
<path fill="#48475c" d="M17.067 26.133h4.8v1.067h-4.8v-1.067z"></path>
<path fill="#48475c" d="M17.067 28.267h2.667v1.067h-2.667v-1.067z"></path>
</svg>
