<svg xmlns="http://www.w3.org/2000/svg" xmlns:xlink="http://www.w3.org/1999/xlink" width="1086.456" height="604.917" viewBox="0 0 1086.456 604.917"><defs><linearGradient id="a" x1="0.5" y1="1" x2="0.5" gradientUnits="objectBoundingBox"><stop offset="0" stop-color="gray" stop-opacity="0.251"/><stop offset="0.54" stop-color="gray" stop-opacity="0.122"/><stop offset="1" stop-color="gray" stop-opacity="0.102"/></linearGradient></defs><g transform="translate(-462.166 -147.104)"><rect width="1031" height="350" rx="175" transform="matrix(0.966, -0.259, 0.259, 0.966, 462.166, 413.946)" fill="#fff3f1"/><g transform="translate(595.037 176)"><path d="M854.532,651.935c0,3.448-20.1,13.5-43.974,13.5s-42.478-10.053-42.478-13.5,19.351-2.338,43.249-2.338S854.532,648.481,854.532,651.935Z" transform="translate(-363.318 -338.968)" fill="#504f60"/><path d="M854.532,653.72c0,3.448-20.1,13.5-43.974,13.5s-42.478-10.053-42.478-13.5" transform="translate(-363.318 -340.753)" opacity="0.2"/><path d="M503.426,538.946c3.875.5,7.9.812,11.607-.392.584-.181,1.227-.584,1.169-1.169a1.415,1.415,0,0,0-.263-.584,36.109,36.109,0,0,1-3.507-6.68.583.583,0,0,0-.216-.3.549.549,0,0,0-.374,0c-1.712.45-3.191,1.555-4.892,2.028a6.958,6.958,0,0,1-2.665.2c-.771-.088-1.823-.725-2.525-.643C502.157,533.955,503.128,536.339,503.426,538.946Z" transform="translate(-252.649 -289.251)" fill="#ff7657"/><path d="M626.975,524.965c2.554-1.753,5.2-3.594,6.709-6.3a1.094,1.094,0,0,0,.181-.544,1.123,1.123,0,0,0-.216-.526,21.72,21.72,0,0,0-5.453-5.885,15.9,15.9,0,0,0-3.039,2.805c-.643.678-2.42,1.753-2.437,2.788,0,.585.678,1.262.994,1.753.427.631.83,1.274,1.216,1.929C625.151,521.307,627.179,524.837,626.975,524.965Z" transform="translate(-302.914 -281.74)" fill="#ff7657"/><path d="M502.444,549.737a2.6,2.6,0,0,1-.468,1.695,2.3,2.3,0,0,1-.982.584c-5.418,1.94-11.689-.479-17.1,1.432-1.11.392-2.163.958-3.279,1.333a17.848,17.848,0,0,1-4.091.725c-1.911.181-3.834.3-5.751.351a13.829,13.829,0,0,1-4.337-.38,5.207,5.207,0,0,1-3.326-2.636,2.531,2.531,0,0,1-.164-1.876,2.022,2.022,0,0,1,.357-.584,5.125,5.125,0,0,1,1.274-1.034l1.993-1.286a13.388,13.388,0,0,1,3.022-1.6c.789-.257,1.625-.368,2.425-.584,2.8-.818,4.939-3.039,6.926-5.172l2.712-2.893a2.729,2.729,0,0,1,.941-.754,2.607,2.607,0,0,1,1.169-.111,15.63,15.63,0,0,1,7.393,2.478,9.576,9.576,0,0,0,1.824,1.076,6.51,6.51,0,0,0,5.1-.631c.7-.374.544-.584.836-1.251s1.005-1.093,1.625-.485a1.718,1.718,0,0,1,.386.736c.584,1.929.362,4,.362,6.026a2.653,2.653,0,0,0,.117.935,5.286,5.286,0,0,0,.532.865,1.984,1.984,0,0,1,.111.222,5.944,5.944,0,0,1,.392,2.823Z" transform="translate(-236.477 -292.217)" fill="#514e7f"/><path d="M502.444,556.83a2.6,2.6,0,0,1-.468,1.695,2.3,2.3,0,0,1-.982.584c-5.418,1.94-11.689-.479-17.1,1.432-1.11.391-2.163.958-3.279,1.333a17.835,17.835,0,0,1-4.091.725c-1.911.181-3.834.3-5.751.351a13.831,13.831,0,0,1-4.337-.38,5.207,5.207,0,0,1-3.326-2.636,2.531,2.531,0,0,1-.164-1.876,2.023,2.023,0,0,1,.357-.584c.316.66.544,1.537.742,1.853a3.793,3.793,0,0,0,2.537,1.829,6.3,6.3,0,0,0,2.338-.3c4.909-1.216,10.129-1.233,14.845-3.074a34.321,34.321,0,0,1,4.863-1.87,38.224,38.224,0,0,1,5.26-.427c2.77-.222,5.453-1.058,8.182-1.5A5.943,5.943,0,0,1,502.444,556.83Z" transform="translate(-236.477 -299.31)" fill="#464353"/><path d="M629.41,527.126a9.85,9.85,0,0,1-2.992,5.33,34.855,34.855,0,0,0-4.191,4.582c-1.4,2.145-2.034,4.8-3.857,6.616a10.579,10.579,0,0,1-2.338,1.666,16.31,16.31,0,0,1-3.01,1.385c-2.723.871-5.657.672-8.5.462a7.649,7.649,0,0,1-2.7-.52,8.128,8.128,0,0,1-1.122-.69,5.357,5.357,0,0,1-1.753-1.753,1.753,1.753,0,0,1-.169-1.274,2.993,2.993,0,0,1,.812-1.239,19.3,19.3,0,0,1,2.057-1.853,12.313,12.313,0,0,0,2.677-2.338,7.549,7.549,0,0,0,1.035-2.338,20.742,20.742,0,0,0,.754-4.471,14.165,14.165,0,0,1,.31-2.992c.432-1.543,1.578-2.922,1.449-4.518a1.128,1.128,0,0,1,.058-.684.953.953,0,0,1,.538-.333,9.53,9.53,0,0,1,2.794-.649,3.256,3.256,0,0,1,2.595,1.017c.4.479.66,1.169,1.245,1.356a1.972,1.972,0,0,0,.888.035,7.442,7.442,0,0,0,4.091-1.257,5.1,5.1,0,0,0,1.7-3.723c0-.532-.24-1.087.584-1.169.619-.082,1.11.584,1.426.994a13.847,13.847,0,0,1,2.735,4.979,1.468,1.468,0,0,1,.52-.1,2.262,2.262,0,0,1,1.864.953A3.711,3.711,0,0,1,629.41,527.126Z" transform="translate(-292.941 -284.258)" fill="#514e7f"/><path d="M629.567,531.245a9.851,9.851,0,0,1-2.992,5.33,34.847,34.847,0,0,0-4.19,4.582c-1.4,2.145-2.034,4.8-3.857,6.616a10.582,10.582,0,0,1-2.338,1.666,16.313,16.313,0,0,1-3.01,1.385c-2.724.871-5.657.672-8.5.462a7.65,7.65,0,0,1-2.7-.52,8.152,8.152,0,0,1-1.122-.69,5.359,5.359,0,0,1-1.753-1.753,4.273,4.273,0,0,1,1.753-.421c1.262.07,2.186,1.263,3.4,1.631,1.724.52,3.442-.7,5.19-1.111,1.14-.269,2.338-.2,3.466-.584a8.565,8.565,0,0,0,2.566-1.555,13.06,13.06,0,0,0,2.741-2.642,16.99,16.99,0,0,0,1.607-3.209,45.886,45.886,0,0,1,3.249-6.219,4.4,4.4,0,0,1,.661-.865,9.2,9.2,0,0,1,.894-.649,6.793,6.793,0,0,0,2.063-3.764,6.591,6.591,0,0,1,.462-1.257,2.261,2.261,0,0,1,1.864.953A3.711,3.711,0,0,1,629.567,531.245Z" transform="translate(-293.098 -288.377)" fill="#464353"/><path d="M439.919,211.732a12.4,12.4,0,0,1,3.507,4.091c.818,1.6,5.535,14.027,5.26,15.833,1.537-1.549,7.6-1.8,9.152-3.349.649-.649,4.15-3.887,4.676-4.641s4.43-2.338,4.857-3.133c1.6-2.858-11.315-13.688-9.661-16.511a.736.736,0,0,0,.134-.444.725.725,0,0,0-.216-.345,19.361,19.361,0,0,0-3.735-2.554,5.923,5.923,0,0,1-2.846-3.39,12.274,12.274,0,0,0-3.3,2.233q-3.553,3.045-6.984,6.213c-.894.83-2.624,1.935-3.039,3.121C437.231,210.13,439.066,211.036,439.919,211.732Z" transform="translate(-226.003 -151.083)" fill="#a1616a"/><path d="M465.735,214.13a38.037,38.037,0,0,0-5.529,4.524c-1.6,1.584-3.121,3.419-3.507,5.634-.164.871-.14,1.753-.275,2.636-.584,3.828-3.892,6.634-5.354,10.216a17.717,17.717,0,0,0-.929,3.419,40.417,40.417,0,0,0-.672,6.709c-.035,2.18,2.1,3.682,2.887,5.716a34.908,34.908,0,0,1,1.391,6.213,73.6,73.6,0,0,0,3.507,11.514c2.881,7.96,12.221,29.965,15.1,37.931,8.831-2.215,32.338-7.306,40.158-11.975,2.607-1.555-18.089-19.094-15.3-20.3A1.04,1.04,0,0,0,498,274.9c-2.788-12.192-11.508-22.209-15.465-34.079-1.373-4.12-3.84-7.639-5.71-11.555-1.695-3.548-2.6-7.469-4.629-10.842a6.838,6.838,0,0,0-1.479-1.841,8.721,8.721,0,0,0-1.631-.988C467.927,215.03,466.851,214.7,465.735,214.13Z" transform="translate(-230.919 -158.081)" fill="#514e7f"/><circle cx="13.822" cy="13.822" r="13.822" transform="translate(200.561 31.619)" fill="#a1616a"/><path d="M466.4,206.217a4.635,4.635,0,0,1,5.2-.748,2.511,2.511,0,0,1,1.543,2.5l6.856.105a13.763,13.763,0,0,1,3.25.3,4.722,4.722,0,0,1,2.712,1.7c.082.111.175.245.316.263a.5.5,0,0,0,.316-.105,5.95,5.95,0,0,1,3.413-.584c3.705.24,7.13,2.092,10.035,4.407A3.243,3.243,0,0,1,501.2,215.5c.24.777-.047,1.753.585,2.309,0,6.429,2.209,12.437,3.682,18.7.263,1.116,1.333,2.1,2.075,2.981a12.026,12.026,0,0,1,2.215,3.308c1.251,3.25-.473,7.072.742,10.333a17.7,17.7,0,0,0,2.338,3.711,9.6,9.6,0,0,1,2,4.792c.053.783-.047,1.572,0,2.338a14.156,14.156,0,0,0,.585,3.1q.748,2.829,1.566,5.652c.888,3.039,2.046,6.318,4.769,7.937-6.575,1.116-13.507,2.209-19.772-.076a10.253,10.253,0,0,1-2.466-1.233c-2.262-1.613-3.355-4.372-4.331-6.978a32.951,32.951,0,0,1-2.414-9.006,10.338,10.338,0,0,0-.415-2.922c-.637-1.695-2.338-2.718-3.881-3.659a18.633,18.633,0,0,1-4.676-3.635,7.265,7.265,0,0,1-1.894-5.459c.117-.964.5-1.894.532-2.864a2.243,2.243,0,0,0-1.327-2.338c-4.787-1.449-7.072-7.119-8.136-12a38.542,38.542,0,0,1-.614-7.656l-.064-4.985a6.581,6.581,0,0,1-2.151-4.728,5.617,5.617,0,0,0-.029-1.566,4.32,4.32,0,0,0-1.1-1.666A14.868,14.868,0,0,1,466.4,206.217Z" transform="translate(-237.955 -154.283)" fill="#464353"/><path d="M440.526,231.209c-.158,1.543.193,3.127-.152,4.641-.134.584-.368,1.169-.538,1.712a10.052,10.052,0,0,0,.637,6.5,36.234,36.234,0,0,0,3.326,5.757,9.353,9.353,0,0,1,1.064,1.993,10.317,10.317,0,0,1,.409,2.274,70.614,70.614,0,0,0,1.625,9.188c.655,2.618,8.089,25,9.819,27.078a2.2,2.2,0,0,0,1.333.906,2.426,2.426,0,0,0,1.134-.234l3.507-1.344a2.291,2.291,0,0,0,.812-.444,2.092,2.092,0,0,0,.5-1.379c.251-2.852-7.2-25.394-8.147-28.089-2.864-8.136-6.674-15.979-8.539-24.4-.52-2.338-.795-5.938-2.507-7.8-.707-.771-.468-.444-1.315-.041a9.6,9.6,0,0,0-1.239.649A4.056,4.056,0,0,0,440.526,231.209Z" transform="translate(-226.803 -163.471)" fill="#464353"/><path d="M556.62,320.79" transform="translate(-275.446 -202.404)" fill="#464353"/><path d="M458.831,243.532c.941,4.974,1.911,9.936,2.876,14.909l13.723-3.594c.111-1.438-.655-2.77-1.169-4.091-1.251-3.138-1.28-6.633-2.291-9.86-.766-2.455-2.1-4.711-2.817-7.183-.415-1.438-.625-2.922-1.034-4.378a31.791,31.791,0,0,0-1.613-4.179,26.16,26.16,0,0,0-2.992-5.546c-1.753.655-3.624,1.414-4.623,3a6.476,6.476,0,0,0-.853,2.922c-.24,3.08.877,6.178.508,9.24A27.176,27.176,0,0,0,458.831,243.532Z" transform="translate(-234.465 -160.358)" fill="#ff7657"/><path d="M482.788,352.646c.772,2.922-.345,6-1.257,8.889a68.9,68.9,0,0,0-2.794,13.384,11.586,11.586,0,0,1-.69,3.384c-.433.976-1.169,1.8-1.672,2.729-1.379,2.443-1.344,5.424-1.046,8.217.2,1.841.5,3.676.865,5.488.45,2.215,1.005,4.53.357,6.692,1.087-.24,1.823,1.169,1.753,2.274s-.427,2.338.105,3.29c1.344.491,1.356,2.338,1.315,3.77a31.71,31.71,0,0,0,.935,7.364q3.051,14.67,6.476,29.258c4.939,1.531,10.707,3.127,15.418,1.005a3.092,3.092,0,0,0,1.952-1.964,3.426,3.426,0,0,0-.187-1.508l-2.233-8.124a14.918,14.918,0,0,1-.8-6.008c.216-1.5.871-3.121.134-4.448-.251-.456-.649-.812-.941-1.245-1.169-1.712-.555-4-.462-6.078a4.817,4.817,0,0,0-.094-1.391,6.942,6.942,0,0,0-.666-1.525,23.331,23.331,0,0,1-2.572-11.607,2.869,2.869,0,0,0-.2-1.514,4.9,4.9,0,0,1-.38-.62,1.7,1.7,0,0,1,.123-1.116,10.228,10.228,0,0,1-1.8-1.753,2.519,2.519,0,0,0,.432-3.939,1.315,1.315,0,0,0,.625-2.262c-.286-.2-.666-.286-.871-.584-.316-.432-.058-1.034.2-1.5l1.362-2.461c1.017-1.829,1.245-4.091,2.338-5.845a43.805,43.805,0,0,0,3.6-8.217l3.933-10.853,2.648,2.3a8.37,8.37,0,0,1,2.174,2.478,10.692,10.692,0,0,1,.707,2.969c.97,5.891,4.676,11,6.049,16.8a11.069,11.069,0,0,0,1.251,3.752,8.18,8.18,0,0,1,.713,1.075,5.7,5.7,0,0,1,.3,1.783,8.317,8.317,0,0,0,3.507,5.961c1.3.894,2.922,1.508,3.63,2.922a5.449,5.449,0,0,0,.584,1.245c.631.76,1.993.847,2.262,1.8.152.532-.129,1.169.169,1.636a1.549,1.549,0,0,0,.649.485l3.8,1.9c4.255,2.127,6.429,7.013,9.567,10.573a22.8,22.8,0,0,1,2.864,3.787c1.356,2.425,1.981,5.47,4.272,7.013a6.463,6.463,0,0,1,1.66,1.233c.719.947.456,2.273.52,3.466s.976,2.612,2.11,2.25a8.315,8.315,0,0,0,0,4.413,22.209,22.209,0,0,0,13.477-5.459,5.318,5.318,0,0,0,2.192-3.682,1.321,1.321,0,0,0-.164-.731,2.087,2.087,0,0,0-.859-.649c-3.559-1.929-4.629-6.4-6.429-10.029-1.572-3.2-3.9-5.961-5.845-8.936-4.231-6.4-7.119-14.144-13.518-18.369-1.409-.929-3.045-1.753-3.752-3.29-.392-.859-.438-1.841-.748-2.729a2.368,2.368,0,0,0-2-1.753,12.249,12.249,0,0,0,.456-4.243,5.357,5.357,0,0,0-.21-1.829,8.892,8.892,0,0,0-.941-1.812,17.382,17.382,0,0,1-2.408-9.351c.047-1.689.345-3.431-.164-5.044-.257-.812-.707-1.555-1.017-2.338a14.61,14.61,0,0,1-.731-4.4l-.351-5.617a27.643,27.643,0,0,0-.725-5.552c-1.169-4.36-2.338-22.624-6.341-24.681s-10.882,12-15.389,12.273a20.039,20.039,0,0,0-5.845,1.128c-3,1.122-5.511,3.214-7.96,5.26l-8.288,6.961A30.532,30.532,0,0,1,482.788,352.646Z" transform="translate(-241.596 -203.313)" fill="#464353"/><path d="M417.65,166.926A10.419,10.419,0,0,1,425.693,163a18.73,18.73,0,0,1,8.889,2.233,10.98,10.98,0,0,0,2.595,1.064c1.461.3,3.086-.1,4.407.584,1.753.929,2.092,3.3,1.94,5.26s-.52,4.144.526,5.844a13.5,13.5,0,0,1,1.011,1.525,5.044,5.044,0,0,1-.082,3.25,21.058,21.058,0,0,1-1.677-2.145,1.976,1.976,0,0,0-2.42-.625c-.754.508-.742,1.432-.783,2.262s-.251,1.823-1.034,2.092a1.677,1.677,0,0,1-1.753-.684c-1.338-1.636-.8-4.249-2.127-5.9-.754-.935-2.011-1.391-2.706-2.373-.549-.771-.69-1.753-1.169-2.583s-1.6-1.438-2.338-.865a3.162,3.162,0,0,0-.625.836,3.594,3.594,0,0,1-4.266,1.286,7.137,7.137,0,0,0-1.847-.8,2.285,2.285,0,0,0-2.11,1.169,4.565,4.565,0,0,0-.584,2.443c0,1.169.21,2.414-.456,3.349a3.466,3.466,0,0,1-.935.888c-.976.625-2.338,1.046-3.238.333a2.431,2.431,0,0,1-.725-2.268,18.335,18.335,0,0,1,.69-2.4c.514-1.812-.158-3.852.4-5.558A17.745,17.745,0,0,1,417.65,166.926Z" transform="translate(-216.236 -136.832)" fill="#464353"/><path d="M432.789,222.561a2.128,2.128,0,0,0,.129,1.268,2.016,2.016,0,0,0,.69.66,14.178,14.178,0,0,0,6.511,2.11,1.981,1.981,0,0,1,.9.234,1.582,1.582,0,0,1,.38,1.812,4.715,4.715,0,0,0-.415,1.929c.169,1.222,1.619,1.753,2.84,1.935a6.607,6.607,0,0,0,4.944-.964,7.639,7.639,0,0,0,2.04-3.057c3.355-7.709,4.529-16.23,7.925-23.916a5.076,5.076,0,0,0,.508-1.6,1.578,1.578,0,0,0-.631-1.473c-.631-.392-1.613-.169-2.04-.783-.21-.31-.187-.731-.374-1.058-.392-.7-1.42-.584-2.122-.988-.549-.292-.929-.894-1.543-1.011a1.941,1.941,0,0,0-1.6.69c-1.993,1.859-3.039,4.494-4.15,6.984a81.876,81.876,0,0,1-5.938,11.011c.263-.409-1.262-3.507-1.859-3.641-1.046-.21-2.385,1.625-2.951,2.309a14.7,14.7,0,0,0-3.25,7.551Z" transform="translate(-223.97 -151.235)" fill="#ff7657"/><path d="M464.517,200.32a2.8,2.8,0,0,0-2.168,1.087,6.183,6.183,0,0,0-.906,2.922A25.394,25.394,0,0,1,458,213.575" transform="translate(-234.464 -152.342)" opacity="0.1"/><path d="M469.712,204.31a3.337,3.337,0,0,0-2.835,1.7,9.556,9.556,0,0,0-.713,2.887,15.845,15.845,0,0,1-2.835,6.072" transform="translate(-236.679 -154.001)" opacity="0.1"/><path d="M479.431,380.325v-7.259a20.152,20.152,0,0,0-20.152-20.146H172.612a20.152,20.152,0,0,0-20.152,20.146V386.45Z" transform="translate(-107.497 -215.755)" fill="#33323d"/><path d="M323.376,306.543s-.818,50.765,8.182,67.469,12.858,89.368,12.858,89.368,94.354,9.76,160.1-11.689,205.656-30.222,205.656-30.222L686.6,262.563s-116.475-7.469-182.734,24.132S323.376,306.543,323.376,306.543Z" transform="translate(-178.513 -177.888)" fill="#8dd070"/><path d="M323.376,306.543s-.818,50.765,8.182,67.469,12.858,89.368,12.858,89.368,94.354,9.76,160.1-11.689,205.656-30.222,205.656-30.222L686.6,262.563s-116.475-7.469-182.734,24.132S323.376,306.543,323.376,306.543Z" transform="translate(-178.513 -177.888)" opacity="0.1"/><path d="M358.707,333.065s-2.952,41.888,4.453,55.271,7.75,73.132,7.75,73.132,84.915,3.939,145.318-16.622,187.334-33.9,187.334-33.9L689.138,281s-105.026-1.081-166.323,27.861S358.707,333.065,358.707,333.065Z" transform="translate(-192.962 -185.865)" fill="#8dd070"/><ellipse cx="22.045" cy="47.282" rx="22.045" ry="47.282" transform="translate(295.355 144.074) rotate(-7.1)" opacity="0.1"/><path d="M599.407,130.66S486.252,159.3,432.892,209.707,267.2,283.985,267.2,283.985s14.8,48.562,28.486,61.7,39.649,81.122,39.649,81.122,92.793-19.673,148.783-60.28S670.6,274.634,670.6,274.634Z" transform="translate(-155.177 -123.395)" opacity="0.2"/><path d="M264.29,271.549s14.792,48.568,28.469,61.706,39.649,81.116,39.649,81.116,92.8-19.667,148.8-60.274,186.475-91.876,186.475-91.876L596.491,118.23s-113.149,28.638-166.51,79.047S264.29,271.549,264.29,271.549Z" transform="translate(-153.968 -118.23)" fill="#8dd070"/><path d="M264.29,271.549s14.792,48.568,28.469,61.706,39.649,81.116,39.649,81.116,92.8-19.667,148.8-60.274,186.475-91.876,186.475-91.876L596.491,118.23s-113.149,28.638-166.51,79.047S264.29,271.549,264.29,271.549Z" transform="translate(-153.968 -118.23)" opacity="0.1"/><path d="M308,292.464s10.047,40.777,21.2,51.239,29.807,67.212,29.807,67.212,82.022-22.314,133.2-60.42S660.12,260.8,660.12,260.8l-53.6-119.3s-100.286,31.192-149.748,77.551S308,292.464,308,292.464Z" transform="translate(-172.132 -127.9)" fill="#8dd070"/><ellipse cx="22.045" cy="47.282" rx="22.045" ry="47.282" transform="translate(258.284 121.816) rotate(-24.97)" opacity="0.1"/><path d="M487.181,397.547V599.183a17.434,17.434,0,0,1-17.44,17.434H169.918a17.434,17.434,0,0,1-17.428-17.434V377.22c8.591,3.191,8.591,3.191,17.428,2.922H469.741a17.44,17.44,0,0,1,17.44,17.4Z" transform="translate(-107.51 -225.853)" opacity="0.1"/><path d="M487.181,401.933V603.568A17.44,17.44,0,0,1,469.741,621H169.918a17.434,17.434,0,0,1-17.428-17.434V381.6c8.591,3.185,8.591,3.185,17.428,2.922H469.741A17.44,17.44,0,0,1,487.181,401.933Z" transform="translate(-107.51 -227.673)" fill="#504f60"/><path d="M656.3,543.938V608.42H593.764a32.243,32.243,0,1,1,0-64.485Z" transform="translate(-277.482 -295.132)" opacity="0.1"/><path d="M657.76,541v64.494H595.224a32.243,32.243,0,1,1,0-64.485Z" transform="translate(-278.089 -293.912)" fill="#33323d"/><circle cx="12.572" cy="12.572" r="12.572" transform="translate(307.562 268.479)" opacity="0.1"/><circle cx="12.572" cy="12.572" r="12.572" transform="translate(308.415 266.772)" fill="#ff7657"/><path d="M881.772,533.634c.5,5.383-3.577,10.608-2.39,15.88.257,1.128.742,2.192.918,3.331.491,3.133-1.373,6.1-3.156,8.714L861.83,584.026a13.95,13.95,0,0,1-2.186,2.7c-2.922,2.607-7.317,2.338-11.163,3.115A19.078,19.078,0,0,0,841,593.149a.479.479,0,0,0-.07.655,6.429,6.429,0,0,0,5.564,2.613c.4.532,0,1.309-.584,1.689-.824.584-1.952.725-2.116,2.116a2.3,2.3,0,0,0,.281,1.4,4.354,4.354,0,0,0,2.677,1.864c5.3,1.619,11.029-1.227,15-5.1s6.815-8.767,10.707-12.712c2.157-2.18,4.606-4.05,6.826-6.166,4.43-4.22,7.873-9.351,11.2-14.488a16.166,16.166,0,0,0,2.425-4.933c.421-1.794.222-3.606.7-5.342.62-2.279,2.285-4.091,3.67-6,2.718-3.74,4.529-8.317,4.173-12.922s-3.214-9.158-7.563-10.725a6.721,6.721,0,0,0-4.237-.257c-1.782.549-3.1,2.022-4.313,3.431l-2.922,3.361a7.879,7.879,0,0,0-1.7,2.572,2.694,2.694,0,0,0,.585,2.858" transform="translate(-393.55 -287.102)" fill="#fbbebe"/><path d="M881.772,533.634c.5,5.383-3.577,10.608-2.39,15.88.257,1.128.742,2.192.918,3.331.491,3.133-1.373,6.1-3.156,8.714L861.83,584.026a13.95,13.95,0,0,1-2.186,2.7c-2.922,2.607-7.317,2.338-11.163,3.115A19.078,19.078,0,0,0,841,593.149a.479.479,0,0,0-.07.655,6.429,6.429,0,0,0,5.564,2.613c.4.532,0,1.309-.584,1.689-.824.584-1.952.725-2.116,2.116a2.3,2.3,0,0,0,.281,1.4,4.354,4.354,0,0,0,2.677,1.864c5.3,1.619,11.029-1.227,15-5.1s6.815-8.767,10.707-12.712c2.157-2.18,4.606-4.05,6.826-6.166,4.43-4.22,7.873-9.351,11.2-14.488a16.166,16.166,0,0,0,2.425-4.933c.421-1.794.222-3.606.7-5.342.62-2.279,2.285-4.091,3.67-6,2.718-3.74,4.529-8.317,4.173-12.922s-3.214-9.158-7.563-10.725a6.721,6.721,0,0,0-4.237-.257c-1.782.549-3.1,2.022-4.313,3.431l-2.922,3.361a7.879,7.879,0,0,0-1.7,2.572,2.694,2.694,0,0,0,.585,2.858" transform="translate(-393.55 -287.102)" opacity="0.05"/><path d="M921.2,772.724c-3.343,2.04-7.51,2.162-11.4,1.689-.625-.076-1.368-.123-1.753.362-.584.7.105,1.753.818,2.3a16.86,16.86,0,0,0,7.826,3.22,51.531,51.531,0,0,0,7.656.508c7.013.123,14.027.24,20.929-.766a2.962,2.962,0,0,0,1.169-.339,2.141,2.141,0,0,0,.865-1.315A5.217,5.217,0,0,0,945.5,773.4a15.255,15.255,0,0,0-4.88-2.618l-6.078-2.367c-1.426-.555-3.711-2.028-5.26-1.911C926.371,766.716,923.618,771.31,921.2,772.724Z" transform="translate(-421.393 -387.618)" fill="#3f3d56"/><path d="M921.2,772.724c-3.343,2.04-7.51,2.162-11.4,1.689-.625-.076-1.368-.123-1.753.362-.584.7.105,1.753.818,2.3a16.86,16.86,0,0,0,7.826,3.22,51.531,51.531,0,0,0,7.656.508c7.013.123,14.027.24,20.929-.766a2.962,2.962,0,0,0,1.169-.339,2.141,2.141,0,0,0,.865-1.315A5.217,5.217,0,0,0,945.5,773.4a15.255,15.255,0,0,0-4.88-2.618l-6.078-2.367c-1.426-.555-3.711-2.028-5.26-1.911C926.371,766.716,923.618,771.31,921.2,772.724Z" transform="translate(-421.393 -387.618)" opacity="0.05"/><path d="M934.717,614.565c-2.531,3.366-5.149,7.253-4.524,11.42.339,2.244,1.6,4.226,2.519,6.3a44.451,44.451,0,0,1,2.548,8.86c.947,4.407,1.9,8.825,2.478,13.3.66,5.055-2.443,19.684-2.729,24.775a5.235,5.235,0,0,1-1.07,3.437c-.333.351-.777.631-.929,1.087a1.858,1.858,0,0,0,.2,1.286,14.143,14.143,0,0,0,7.6,6.978c3.255,1.368,11.1,3.729,14.652,3.852a2.92,2.92,0,0,0,1.379-.181,2.682,2.682,0,0,0,1.064-1.221c2.542-4.863.1-22.151.134-27.639.035-4.576,1.116-9.123.918-13.694-.164-3.67-1.169-7.259-1.5-10.918-.584-6,.514-12.022,1.619-17.948.842-4.547,1.689-9.094,2.77-13.583a26.081,26.081,0,0,1,2.922-7.884c1.169-1.888,2.811-3.466,4.173-5.26a23.74,23.74,0,0,0,4.675-17.381c-.082-.584-8.767,2.2-9.532,2.537a29.693,29.693,0,0,0-8.5,5.465c-2.01,1.917-3.594,4.477-5.354,6.622q-3.735,4.553-7.376,9.17Q938.7,609.224,934.717,614.565Z" transform="translate(-430.645 -310.149)" fill="#464353"/><path d="M934.717,614.236c-2.531,3.366-5.149,7.259-4.524,11.42.339,2.25,1.6,4.231,2.519,6.306a44.4,44.4,0,0,1,2.548,8.854c.947,4.412,1.9,8.831,2.478,13.3.66,5.061-2.443,19.684-2.729,24.775a5.251,5.251,0,0,1-1.07,3.442c-.333.345-.777.625-.929,1.081a1.853,1.853,0,0,0,.2,1.286,14.315,14.315,0,0,0,7.6,7.013c3.255,1.4,11.1,2.624,14.652,2.741a2.921,2.921,0,0,0,1.379-.181,2.641,2.641,0,0,0,1.064-1.216c2.542-4.863.1-21.04.134-26.534.035-4.582,1.116-9.123.918-13.7-.164-3.67-1.169-7.259-1.5-10.912-.584-6,.514-12.028,1.619-17.954.842-4.541,1.689-9.088,2.77-13.583a26.081,26.081,0,0,1,2.922-7.884c1.169-1.888,2.811-3.466,4.173-5.26a23.729,23.729,0,0,0,4.676-17.382c-.082-.584-8.767,2.2-9.532,2.537a29.837,29.837,0,0,0-8.5,5.47c-2.01,1.911-3.594,4.471-5.354,6.616q-3.735,4.553-7.376,9.176Q938.7,608.888,934.717,614.236Z" transform="translate(-430.645 -310.024)" opacity="0.05"/><circle cx="14.185" cy="14.185" r="14.185" transform="translate(461.728 201.904)" fill="#fbbebe"/><path d="M902.065,485.015a18.37,18.37,0,0,0,11.777,8.217l-1.07,3.887c-1.847,6.674-3.922,13.735-9.076,18.363a8.536,8.536,0,0,0-1.438-6.639,25.023,25.023,0,0,0-4.816-5.032l-8.165-7.072a2.46,2.46,0,0,1-.584-.69,2.074,2.074,0,0,1,0-1.555c1.04-3.238,4.009-5.26,6.429-7.446a22.274,22.274,0,0,0,3.232-3.764C899.984,480.959,901,483.3,902.065,485.015Z" transform="translate(-413.376 -269.523)" fill="#fbbebe"/><path d="M855.336,455.467l-.322-2.665c2.239.584,4.366-1.321,5.8-3.29s2.759-4.29,4.939-5.114c2.648-.994,5.453.584,7.984,1.917a25.242,25.242,0,0,0,9.158,2.981,6.027,6.027,0,0,1,1.514.246c1.648.584,2.431,2.653,2.671,4.529s.175,3.869.988,5.541c.584,1.268,1.672,2.209,2.338,3.46,1.753,3.355.058,7.943,1.888,11.233l-4.547-4.167c-.415-.38-1-.777-1.461-.456-.362.257-.392.812-.538,1.257a2.387,2.387,0,0,1-3.238,1.169,9.28,9.28,0,0,1-2.922-2.648,17.737,17.737,0,0,0-7.212-5.47,9.258,9.258,0,0,0-7.6.5c-2.121,1.2-3.676,3.992-6.277,4.091-3.565.134-5.05-6.505-6.7-9.129a3.214,3.214,0,0,0,.935-4.021C852.975,455.333,855.283,455.058,855.336,455.467Z" transform="translate(-398.108 -253.639)" fill="#464353"/><path d="M554.389,319.28a27.593,27.593,0,0,0-3.15,3.308,6.623,6.623,0,0,0-1.449,4.249,2.175,2.175,0,0,0,.409,1.245,1.052,1.052,0,0,0,1.169.357,1.572,1.572,0,0,0,.584-.514,28.211,28.211,0,0,1,1.964-2.127c.251-.251.584-.514.923-.421a.988.988,0,0,1,.4.263,2.688,2.688,0,0,1,.824,1.286,3.029,3.029,0,0,1-.906,2.49,6.378,6.378,0,0,0-1.525,2.256,1,1,0,0,0,0,.725,1.087,1.087,0,0,0,.456.386,6.522,6.522,0,0,0,5.517.362c1.169-.473,2.209-1.286,3.413-1.707a7.891,7.891,0,0,0,1.508-.584,3.132,3.132,0,0,0,1.338-2,8.262,8.262,0,0,0,.088-2.461,28.294,28.294,0,0,0-2.011-9.252,1.17,1.17,0,0,0-.339-.491,1.082,1.082,0,0,0-.584-.158c-1.5-.158-3.951-.923-5.394-.368a3.81,3.81,0,0,0-1.274,1.134C556.078,317.55,554.389,318.889,554.389,319.28Z" transform="translate(-272.607 -200.38)" fill="#a1616a"/><path d="M541.93,280.574c0-1.426-1.753-4.868,1.034-5.1,0-1.525-2.157-2.472-1.753-4.091.129-.538.585-.976.637-1.525.175-1.56-2.642-2.408-2.174-3.9.175-.585.795-.923.929-1.5.316-1.35-2.1-1.952-2.145-3.337,0-.467.263-.906.24-1.373,0-.584-.508-1.029-.789-1.537-.731-1.3-.374-3.32-1.707-3.992.883.076,1.169-1.233.807-2.034s-1.1-1.5-1.11-2.385a3.6,3.6,0,0,0,0-.97c-.245-.853-1.642-.923-1.876-1.753a7.467,7.467,0,0,1-.029-.959c-.094-.66-.772-1.081-1.409-1.268a5.744,5.744,0,0,1-1.882-.672c-.409-.31-.883-.824-1.321-.584-.164.1-.245.286-.368.427-.526.614-1.531.345-2.192-.105-1.952-1.327-2.922-3.705-3.337-6.026s-.4-4.717-.923-7.013a15,15,0,0,0-.631-2.1,11.072,11.072,0,0,1-.982-2.092c-.105-1.344,2.677-.427,3.735-.292a16.635,16.635,0,0,1,3.033.584,32.421,32.421,0,0,1,3.1,1.362c4.22,1.864,9.316,2.092,12.706,5.225,1.116,1.029,2.057,2.379,3.507,2.846a15.86,15.86,0,0,1,1.964.508c1.607.754,1.859,2.887,2.735,4.43a8.682,8.682,0,0,1,.719,1.286,4.953,4.953,0,0,1,.234,1.636l.123,4.05a149.368,149.368,0,0,1-.327,20.333c-.234,2.227-.585,4.518.076,6.657.175.584.421,1.134.584,1.724a10.52,10.52,0,0,1,.222,2.1l.093,2.624a.818.818,0,0,1-.129.584.841.841,0,0,1-.707.169c-3.653-.327-7.347-2.385-10.795-1.14" transform="translate(-260.621 -162.994)" fill="#464353"/><ellipse cx="43.226" cy="6.248" rx="43.226" ry="6.248" transform="translate(404.78 306.72)" fill="#504f60"/><path d="M810.109,455.419c-.76-3.255-1.233-6.113-1.233-6.113a12.6,12.6,0,0,0-1.414-6.2v-.888h0V435.67a22.311,22.311,0,0,1,1.654-3.431c1.169-2.057,0-9.6,0-9.6s-4.366-10.631-3.308-17.376-8.965-29.947-8.965-29.947a29.564,29.564,0,0,1,.941-6.628,5.056,5.056,0,0,0,.128-1.391v-.117c-.152-4.448-3.67-12.782-3.67-12.782l.473-15.885s2.244-9.351-1.414-21.946c-1.28-4.389-2.1-7.9-2.618-10.614-.058-.3-.117-.584-.164-.883,7.534-1.169,13.29-2.1,13.29-2.1s-4.372-18.287-7.323-21.49-5.313-13.261-5.313-13.261-1.537-12.911.947-16.686,2.835-10.286,2.835-10.286,5.663-4.091,6.376-5.944a30.329,30.329,0,0,0,1.888-8.112c0-2.168-.707-4.091-.473-5.26s-1.654-5.488-.707-7.545a5.534,5.534,0,0,0,.374-1.981.246.246,0,0,0,0-.058h0a27.755,27.755,0,0,0-.5-5.365,15.225,15.225,0,0,0-5.611-3l-.123-.491-.321-1.286a6.232,6.232,0,0,0-.555-.327v-.468l-.053-1.859.888-4.173c1.753-7.259-7.943-8.34-7.943-8.34a5.114,5.114,0,0,0-2.747-2.408c-1.946-.684-.321,10.918.584,11.689.684.584,2.8,4.2,3.822,5.985h0l.164.292a4.1,4.1,0,0,0-.444.468l.368,2.519.058.386a10.451,10.451,0,0,0-1.549,2.636,5.687,5.687,0,0,1,1.42,4.091,13.105,13.105,0,0,0,.584,5.026c-.105-.123-1.35-1.467-2.595-1.14s-4.722,1.373-4.722,1.373-2.595.456-2.338,1.029-1.753,3.086-1.753,3.086l-6.978-6.616c-.07-.2-.146-.4-.2-.584a16.081,16.081,0,0,1-.584-2.922,15.964,15.964,0,0,0,2.233-.707A4.817,4.817,0,0,0,775.445,210a7.478,7.478,0,0,0,1.128-3.01c.549-2.034,1.753-3.84,2.589-5.774a18.773,18.773,0,0,0,1.315-10.392,6.781,6.781,0,0,0-1.07-3.039c-1.14-1.566-3.209-2.2-4.711-3.454s-2.472-3.162-4.226-4.091a8.38,8.38,0,0,0-5.3-.456,28.539,28.539,0,0,0-9.895,3.6c-1.017.584-2.139,1.3-3.308,1.087a4.319,4.319,0,0,1-2.385-1.753.589.589,0,0,1,.029-.093.576.576,0,0,1-.076-.094,12.325,12.325,0,0,0-1.087,5.225,6.452,6.452,0,0,0,.035.836v.532h0a1.328,1.328,0,0,1-.053.368,2.659,2.659,0,0,1-.655.941,6.305,6.305,0,0,0-.584.777.963.963,0,0,1,.094-.286,4.154,4.154,0,0,0-.725,2.2,2.25,2.25,0,0,0,.526,1.578,7.6,7.6,0,0,0,1.14.912,13.292,13.292,0,0,0-.21,2.338,13.507,13.507,0,0,0,6.581,11.52c.082.193.158.392.234.584a16.641,16.641,0,0,1,1.268,7.6,3.562,3.562,0,0,1-.082.549c-.029.181-.175.193-.251.292h0s-11.531.117-14.243-2.338-6.85,6-6.85,6-4.132.8-4.962,0-5.663-.111-5.663-.111a10.421,10.421,0,0,0-7.206-2.63,21.151,21.151,0,0,0-5.26-2.922h0l-.129-.047h0a5.891,5.891,0,0,0-2.6-.327s-5.669-4.676-7.323-7.2-9.527-11.847-9.562-11.888v-.45l-.088-1.356a4.858,4.858,0,0,1-.707.058c-.041-.134-.1-.292-.158-.473a26.155,26.155,0,0,0-1.671-3.84s0-1.712.5-2.145-.2-6.715-.2-6.715-5.108-11.94-9.684-3.027c0,0-8.65,5.768-1.391,12.49,0,0,2.922,1.4,3.308,2.513.269.719,1.251,2.735,1.911,4.091l.3.584-.082.07.105,1.122.047.432c-1.368.777-2.3,1.549-2.069,2.127a12.784,12.784,0,0,1,.824,3.086s10.041,12.577,11.338,17.948c0,0,26.926,16,35.78,17.142l-1.566,7.978a63.692,63.692,0,0,0-.351,6.517c.117,1.712-1.064,9.486-1.064,9.486s-1.537,11.432-2.835,13.033-1.064,8.457-1.064,8.457a57.794,57.794,0,0,1-1.753,9.714c-1.3,4.342-.357,9.719-.357,9.719s-4.483,10.286,6.26,3.314c0,0,5.26-.327,11.35-.538v.584c0,.783,0,1.631-.041,2.519-.082,5.891-.117,14.027.152,20.152.473,10.859,3.781,32.349,3.781,32.349V374.8a14.718,14.718,0,0,0-.316,3.086,20.082,20.082,0,0,0,2.922,10.806l.83,7.2s1.94,4.746,1.975,7.6a3.971,3.971,0,0,1-.082.684,4.6,4.6,0,0,0-.093,1.1c-.111,3.273,1.859,11.1,1.859,11.1s.117,7.884,1.3,8.346c1.011.392-1.35,4.541-2.051,5.733a1.634,1.634,0,0,1-.041-.222l-.146.234a5.6,5.6,0,0,0-.368,2,2.864,2.864,0,0,0,1.309,2.77c2.244,1.373,3.448,2.513,1.543,2.969a19.831,19.831,0,0,0-2.081.438.9.9,0,0,0-.1-.263,1.251,1.251,0,0,0-.778,1.379,5.845,5.845,0,0,0,.7,2.653,28.948,28.948,0,0,0,3.2,5.844l.906-.1a4.422,4.422,0,0,1-.526.976,3.763,3.763,0,0,1-1.333,1.169,4.126,4.126,0,0,1-1.619.555,4.558,4.558,0,0,0-3.343,1.625c-1.169,1.525-1.917,3.6.409,5.424l8.445,2.922s14.529,1.888,13.758-1.373-1.239-6.113-1.239-6.113a12.887,12.887,0,0,0-1.169-5.78,7.514,7.514,0,0,0-.514-.853l.514-.053s1.064-7.206,2.478-8.574c.327-.316.4-.584.327-.748.146-.392-.228-.62-.7-.754l-.105.286a6.889,6.889,0,0,0-1.409-.158s-.473-3.77,1.064-5.143a1.456,1.456,0,0,0,.3-1.122,6.036,6.036,0,0,0-.164-1.537.746.746,0,0,1-.053.094,55.379,55.379,0,0,0-3.39-8.866s-.117-3.425.83-4.8-.123-18.632-.123-18.632.357-8.34-.707-12.227,1.3-8.463,1.3-8.463v-.3l-.134-1.315a.346.346,0,0,0,0,.082c-.24-2.209-.69-6.213-1.023-8.06-.473-2.63.123-15.2.123-15.2l2.122-5.377,3.781,9.264,4.015,12.344a10.545,10.545,0,0,1,2.034,5.26v.386a6.735,6.735,0,0,0-.047.824,7.34,7.34,0,0,0,1.222,4.4s1.064,5.844,2.718,7.311,1.654,4.342,1.654,4.342,2,8.463,2.922,9.936c.795,1.251.836,4.676.83,5.745h0v.3s.28,3.027.269,5.564v.906a.252.252,0,0,0,0-.064,8.805,8.805,0,0,1-.245,2.057l-.035.117a1.49,1.49,0,0,1,.041-.427,21.483,21.483,0,0,0-.584,5.26c-.053,3.039.409,6.639,2.25,8.767,3.191,3.659,5.2,3.2,5.2,3.2s-1.531,4.57-3.425,5.488a.888.888,0,0,0-.2.129,1.972,1.972,0,0,0-.047-.269,2.227,2.227,0,0,0-.584,1.707,12.26,12.26,0,0,0,2.338,6.774,3.816,3.816,0,0,0,1.6.935,2.524,2.524,0,0,1-.3.181,6.362,6.362,0,0,1-.649.31,3.409,3.409,0,0,1-.964.251,4.5,4.5,0,0,0-3.343,1.625c-1.169,1.52-1.917,3.594.409,5.418l8.445,2.922S810.869,458.674,810.109,455.419Z" transform="translate(-324.915 -142.147)" fill="url(#a)"/><path d="M803.924,652.086l-8.182-2.922c-2.256-1.823-1.537-3.9-.4-5.424a4.372,4.372,0,0,1,3.238-1.625,3.883,3.883,0,0,0,1.56-.555,3.74,3.74,0,0,0,1.3-1.169,6.036,6.036,0,0,0,.929-3.162s8.977-2.63,11.432,0a6.642,6.642,0,0,1,1.087,1.6,13.353,13.353,0,0,1,1.169,5.78s.456,2.852,1.2,6.113S803.924,652.086,803.924,652.086Z" transform="translate(-374.2 -333.414)" fill="#2d293d"/><path d="M872.364,645.177l-8.182-2.922c-2.256-1.824-1.537-3.9-.4-5.418a4.318,4.318,0,0,1,3.232-1.625,3.033,3.033,0,0,0,.935-.251,6.179,6.179,0,0,0,.631-.31c2.285-1.256,2.227-4.342,2.227-4.342s8.971-2.63,11.432,0a6.468,6.468,0,0,1,.859,1.169,12.986,12.986,0,0,1,1.368,6.207s.456,2.858,1.169,6.113S872.364,645.177,872.364,645.177Z" transform="translate(-402.64 -330.538)" fill="#2d293d"/><path d="M818.915,637.218a6.646,6.646,0,0,1,1.087,1.6h0l-13.442,1.56a6.037,6.037,0,0,0,.929-3.162S816.461,634.588,818.915,637.218Z" transform="translate(-379.308 -333.409)" opacity="0.1"/><path d="M886.849,631.5v2.519c-2.092,3.443-12.209,2.688-15.149.964a6.228,6.228,0,0,0,.631-.31c2.285-1.257,2.227-4.342,2.227-4.342s8.971-2.63,11.432,0a6.471,6.471,0,0,1,.859,1.169Z" transform="translate(-406.377 -330.547)" opacity="0.1"/><path d="M851.773,519.573a22.91,22.91,0,0,0-1.6,3.431v9.03c-2.291,3.77-14.173,2.513-15.78.456s-3.285-7.411-1.479-8.34,3.314-5.488,3.314-5.488-1.946.456-5.032-3.2-2.168-11.771-1.6-13.711,0-8.457,0-8.457.117-4.576-.795-6.061-2.858-9.936-2.858-9.936,0-2.858-1.6-4.342-2.63-7.317-2.63-7.317a7.5,7.5,0,0,1-1.14-4.915c.339-2.858-1.946-5.944-1.946-5.944l-3.887-12.349-3.659-9.258-2.057,5.371s-.585,12.572-.111,15.2,1.169,9.6,1.169,9.6-2.285,4.57-1.257,8.457.655,12.238.655,12.238,1.029,17.253.111,18.626-.8,4.8-.8,4.8,4.676,10.052,3.2,11.426-1.029,5.143-1.029,5.143,3.2,0,1.829,1.373-2.4,8.574-2.4,8.574L796.577,535.6a28.751,28.751,0,0,1-3.092-5.844c-1.829-4.249.339-3.77,2.18-4.231s.678-1.6-1.5-2.969-.912-4.459-.912-4.459,3.314-5.6,2.168-6.055-1.257-8.346-1.257-8.346-2.285-9.351-1.712-11.888-1.829-8.568-1.829-8.568l-.8-7.2a19.813,19.813,0,0,1-2.513-13.606v-11.1s-3.2-21.484-3.659-32.343c-.292-6.955-.21-16.446-.117-22.367.058-3.32.117-5.523.117-5.523l49.374-5.143a41.265,41.265,0,0,0,.894,7.335c.508,2.712,1.3,6.224,2.537,10.614,3.542,12.572,1.373,21.94,1.373,21.94l-.462,15.891s4.342,10.625,3.431,14.284a30.463,30.463,0,0,0-.923,6.639s9.714,23.2,8.685,29.947,3.2,17.376,3.2,17.376S852.919,517.516,851.773,519.573Z" transform="translate(-369.706 -229.481)" fill="#464353"/><path d="M852.05,511.275l15.032-2S858.567,517.961,852.05,511.275Z" transform="translate(-398.212 -280.727)" opacity="0.05"/><path d="M872.1,484.14s.514,5.319-2.741,7.317C869.36,491.457,875.187,490.546,872.1,484.14Z" transform="translate(-405.405 -270.284)" opacity="0.1"/><path d="M859.837,455.2s-12.566,10.345-17.136,9.486S859.837,455.2,859.837,455.2Z" transform="translate(-394.064 -258.258)" opacity="0.1"/><path d="M813.176,521s-9.544,2.168-9.83,6S813.176,521,813.176,521Z" transform="translate(-377.97 -285.601)" opacity="0.1"/><path d="M816.409,602.56s-13.483,2.513-9.655,4.226a65.459,65.459,0,0,0,10.117,3.086S821.224,610.1,816.409,602.56Z" transform="translate(-379.104 -319.493)" opacity="0.05"/><g transform="translate(413.744 161.256)" opacity="0.05"><path d="M801.347,613.062a2.66,2.66,0,0,1-1.233-1.952l-.14.24s-1.257,3.086.918,4.453c.245.158.485.316.7.468.4-.076.836-.134,1.251-.24C804.684,615.575,803.521,614.436,801.347,613.062Z" transform="translate(-790.165 -484.302)"/><path d="M831.851,611.218c.374-.339.362-1.216.134-2.338a6.571,6.571,0,0,0-.766,3.308A2.854,2.854,0,0,1,831.851,611.218Z" transform="translate(-803.3 -483.375)"/><path d="M828.1,515.59a15.584,15.584,0,0,0-.912,4.2,16.941,16.941,0,0,1,1.046-2.887Z" transform="translate(-801.625 -444.608)"/><path d="M881.411,504.441a5.357,5.357,0,0,0,.123-1.251c-.169.853-.286,1.642-.374,2.338C881.236,505.171,881.318,504.832,881.411,504.441Z" transform="translate(-824.052 -439.456)"/><path d="M827.971,583.312a7.323,7.323,0,0,0,.339-2.542,8.628,8.628,0,0,0-.66,3.209,3.059,3.059,0,0,1,.321-.666Z" transform="translate(-801.816 -471.694)"/><path d="M819.033,622a45.349,45.349,0,0,0-1.572,7.013l-13.822,1.6a28.751,28.751,0,0,1-3.092-5.844,10.553,10.553,0,0,1-.392-1.005c-.83.38-1.169,1.239-.07,3.746a29.218,29.218,0,0,0,3.1,5.844l13.822-1.6s1.029-7.2,2.4-8.574C820.1,622.514,819.67,622.169,819.033,622Z" transform="translate(-790.072 -488.827)"/><path d="M794.174,506.787s.111,7.884,1.257,8.34h0c.585-1.3.964-2.542.45-2.747-1.169-.456-1.257-8.346-1.257-8.346s-2.285-9.351-1.713-11.888-1.829-8.568-1.829-8.568l-.8-7.2a19.812,19.812,0,0,1-2.513-13.606v-11.1s-3.2-21.484-3.659-32.343c-.292-6.955-.21-16.447-.117-22.367,0-1.07.035-2.016.052-2.817l-.392.041s-.064,2.2-.117,5.523c-.094,5.92-.181,15.412.117,22.361.456,10.859,3.653,32.349,3.653,32.349v11.1a19.824,19.824,0,0,0,2.519,13.6l.795,7.2s2.4,6.055,1.829,8.574S794.174,506.787,794.174,506.787Z" transform="translate(-783.448 -394.14)"/><path d="M869.478,627.6a13.365,13.365,0,0,1-2.192-5.43c-1.409,1.274.21,6.219,1.753,8.182,1.6,2.057,13.483,3.314,15.78-.462v-2.174C881.7,630.773,870.986,629.546,869.478,627.6Z" transform="translate(-818.063 -488.898)"/><path d="M900,609.306a23.094,23.094,0,0,0-1.6,3.431v1.619a23.911,23.911,0,0,1,1.169-2.291,7.018,7.018,0,0,0,.5-2.835S900.019,609.283,900,609.306Z" transform="translate(-831.216 -483.521)"/><path d="M867.965,600.441a22.59,22.59,0,0,0,1.128-2.718s-1.946.456-5.032-3.2c-2.244-2.659-2.373-7.686-2.051-10.97-.584,1.946-1.49,10.058,1.6,13.717C865.622,599.657,867.147,600.289,867.965,600.441Z" transform="translate(-815.849 -472.849)"/><path d="M848.067,524.379a60.934,60.934,0,0,1,.228,6.774,9.23,9.23,0,0,1,.234-1.058c.585-1.946,0-8.457,0-8.457s.117-4.576-.8-6.061-2.829-9.947-2.829-9.947,0-2.858-1.6-4.342-2.63-7.317-2.63-7.317a7.522,7.522,0,0,1-1.169-4.915c.345-2.858-1.94-5.944-1.94-5.944l-3.887-12.344-3.659-9.258-2.063,5.377s0,.678-.07,1.753l1.672-4.366,3.659,9.24,3.887,12.344s2.285,3.086,1.94,5.944a7.522,7.522,0,0,0,1.169,4.915s1.029,5.844,2.63,7.317,1.6,4.342,1.6,4.342,1.946,8.457,2.858,9.935S848.067,524.379,848.067,524.379Z" transform="translate(-801.912 -422.136)"/></g><path d="M870.853,201.625l-.859,4.173.053,1.859.035,1.368-4.769.491-.532-.988h0c-.988-1.788-3.039-5.424-3.7-5.985-.883-.736-2.455-12.344-.585-11.654a4.986,4.986,0,0,1,2.653,2.4S872.542,194.366,870.853,201.625Z" transform="translate(-401.358 -148.411)" fill="#ffcdd3"/><path d="M873.751,220.571l-4.769.491-.532-.988h0a4.2,4.2,0,0,1,5.26-.865Z" transform="translate(-405.027 -159.957)" opacity="0.1"/><path d="M874.76,223.14l-6.289,1.455-.134-.935-.356-2.519a4.328,4.328,0,0,1,6.09-.83l.316,1.28Z" transform="translate(-404.832 -160.265)" fill="#ff7657"/><path d="M694.507,195.8l-6.715,3.6-.584-1.262c-.637-1.338-1.59-3.355-1.853-4.091-.4-1.11-3.2-2.513-3.2-2.513-7.013-6.715,1.344-12.49,1.344-12.49,4.43-8.913,9.351,3.027,9.351,3.027s.69,6.295.2,6.715-.485,2.145-.485,2.145a26.366,26.366,0,0,1,1.619,3.84C694.4,195.405,694.507,195.8,694.507,195.8Z" transform="translate(-326.448 -142.127)" fill="#ffcdd3"/><path d="M700.09,209.306l-6.715,3.6-.584-1.262c.947-.795,4.307-3.507,5.412-3.4a8.088,8.088,0,0,0,1.59.041C699.979,208.914,700.09,209.306,700.09,209.306Z" transform="translate(-332.031 -155.635)" opacity="0.1"/><path d="M700.9,211.661l-7.545,3.717-.152-1.619-.105-1.122s4.372-3.746,5.663-3.6a6.868,6.868,0,0,0,1.97,0l.088,1.356Z" transform="translate(-332.16 -155.963)" fill="#ff7657"/><path d="M827.99,238.583s-32.893,3.711-26.744,1.712c4.278-1.4,5.979-4.091,6.335-7.13a17.128,17.128,0,0,0-1.221-7.6,33.121,33.121,0,0,0-2.922-5.944s25.131-13.828,20.111-1.257a20.274,20.274,0,0,0-1.426,5.956,16.825,16.825,0,0,0,.649,6.032,17.96,17.96,0,0,0,5.219,8.229Z" transform="translate(-376.782 -157.648)" fill="#ffcdd3"/><path d="M825.633,218.336a20.266,20.266,0,0,0-1.426,5.956c-2.367,1.993-4.962,1.859-8.3,1.859-2.56,0-5.4.62-7.446-.614a33.121,33.121,0,0,0-2.922-5.944S830.666,205.765,825.633,218.336Z" transform="translate(-378.884 -157.635)" opacity="0.1"/><circle cx="13.6" cy="13.6" r="13.6" transform="translate(422.979 42.191)" fill="#ffcdd3"/><path d="M827.99,249.837s-32.893,3.711-26.744,1.712c4.278-1.4,5.979-4.091,6.335-7.13,1.637-1.753,4.927-3.057,7.013-3.735a9.843,9.843,0,0,1,5.962-.1,8.474,8.474,0,0,1,2.168,1.005A17.96,17.96,0,0,0,827.99,249.837Z" transform="translate(-376.782 -168.903)" opacity="0.1"/><path d="M875.013,224.552l-6.289,1.455-.134-.935A5.564,5.564,0,0,1,874.639,223Z" transform="translate(-405.085 -161.677)" opacity="0.1"/><path d="M700.977,212.624l-7.545,3.717-.152-1.619a55.034,55.034,0,0,1,7.6-3.372Z" transform="translate(-332.235 -156.926)" opacity="0.1"/><path d="M833.986,393.3c-12.747,2.034-30.865,4.629-33.74,3.752-2.39-.725-10.012-.649-16.645-.421.058-3.32.117-5.523.117-5.523l49.374-5.143A41.251,41.251,0,0,0,833.986,393.3Z" transform="translate(-369.767 -229.489)" opacity="0.1"/><path d="M807.752,318.069s-41.946,7.2-46.446,5.844-27.615.111-27.615.111c-10.4,6.973-6.061-3.314-6.061-3.314a25.57,25.57,0,0,1,.345-9.714,59.338,59.338,0,0,0,1.724-9.725s-.228-6.861,1.029-8.463,2.747-13.027,2.747-13.027,1.14-7.773,1.029-9.486.339-6.517.339-6.517l1.49-8c-8.574-1.14-34.635-17.142-34.635-17.142-1.257-5.371-10.97-17.943-10.97-17.943a13.226,13.226,0,0,0-.8-3.086c-.684-1.829,9.6-5.488,9.6-5.488s7.656,9.351,9.258,11.888,7.084,7.2,7.084,7.2a5.511,5.511,0,0,1,2.513.327l.134.041h0a20.372,20.372,0,0,1,5.114,2.922,9.936,9.936,0,0,1,6.972,2.63s4.676-.69,5.488.111,4.8,0,4.8,0,4-8.457,6.628-6,13.787,2.338,13.787,2.338c1.484-1.975,5.1-3.39,7.364-4.091a9.883,9.883,0,0,1,5.961-.1,7.564,7.564,0,0,1,2.338,1.169l6.785,6.628s1.94-2.519,1.712-3.086,2.285-1.029,2.285-1.029,3.314-1.029,4.57-1.373,2.408,1.017,2.513,1.14a13.664,13.664,0,0,1-.584-5.026,5.938,5.938,0,0,0-1.373-4.091c4-9.83,13.027-1.6,13.027-1.6s1.029,5.371.117,7.428.912,6.4.684,7.545.462,3.086.462,5.26a32.133,32.133,0,0,1-1.829,8.112c-.66,1.829-6.172,5.944-6.172,5.944s-.345,6.517-2.747,10.286-.894,16.663-.894,16.663,2.285,10.058,5.143,13.261S807.752,318.069,807.752,318.069Z" transform="translate(-330.828 -157.246)" fill="#3f3d56"/><path d="M782.866,259.754s-1.257-3.77-2.4-4.091a26.438,26.438,0,0,1-3.314-1.484l.736-1.409s4.29,1.169,4.98,2.437S782.866,259.754,782.866,259.754Z" transform="translate(-367.087 -174.138)" opacity="0.1"/><path d="M740.223,248.327c-.228,1.169-10.4,2.168-10.4,2.168l5.143-5.155h0l.129.047h0a20.372,20.372,0,0,1,5.131,2.94Z" transform="translate(-347.419 -171.051)" opacity="0.1"/><circle cx="0.912" cy="0.912" r="0.912" transform="translate(362.46 60.678)" fill="#575988"/><circle cx="0.912" cy="0.912" r="0.912" transform="translate(363.628 62.507)" fill="#575988"/><circle cx="0.912" cy="0.912" r="0.912" transform="translate(364.774 64.196)" fill="#575988"/><circle cx="0.912" cy="0.912" r="0.912" transform="translate(365.972 66.02)" fill="#575988"/><circle cx="0.742" cy="0.742" r="0.742" transform="translate(473.879 66.09)" fill="#575988"/><circle cx="0.742" cy="0.742" r="0.742" transform="translate(473.996 67.779)" fill="#575988"/><circle cx="0.742" cy="0.742" r="0.742" transform="translate(474.095 69.462)" fill="#575988"/><path d="M787,317.72c-.111-.134,25.657,32.4,45.657,13.6C832.675,331.326,801.073,335.61,787,317.72Z" transform="translate(-371.18 -201.128)" opacity="0.1"/><path d="M761.7,346.66s15.418.421,17.031,4.857v4.617a2.958,2.958,0,0,1-2.87,0c-1.555-.842-10.876-5.576-14.161-3.3Z" transform="translate(-360.667 -213.154)" opacity="0.1"/><path d="M762.19,346.66s14.746.4,16.289,4.635v4.4a2.829,2.829,0,0,1-2.747,0c-1.484-.795-10.4-5.313-13.542-3.139Z" transform="translate(-360.87 -213.154)" fill="#3f3d56"/><path d="M776.1,289.38a49.61,49.61,0,0,0,5.979,10.257,40.248,40.248,0,0,0,9.351,9.041S776.357,291.5,776.1,289.38Z" transform="translate(-366.651 -189.351)" opacity="0.1"/><path d="M767.47,258.73s2.572,11.1,9.2,14.874Z" transform="translate(-363.064 -176.615)" opacity="0.1"/><path d="M760.557,260.648c-.064-.2-2.285,8.767,8.545,13.752C769.1,274.4,764.5,272.839,760.557,260.648Z" transform="translate(-360.096 -177.41)" opacity="0.1"/><path d="M875.907,247.9c-.169,0,5.342,3.507,6.844,5.143C882.751,253.048,879.163,247.671,875.907,247.9Z" transform="translate(-408.124 -172.113)" opacity="0.1"/><path d="M808.188,212.954a2.145,2.145,0,0,0,2.338,2.122c4.144.257,8.463.438,12.273-1.169a4.676,4.676,0,0,0,1.87-1.239,7.688,7.688,0,0,0,1.087-3.01,43.752,43.752,0,0,1,2.507-5.774,19.346,19.346,0,0,0,1.35-10.374,7.012,7.012,0,0,0-1.04-3.033c-1.1-1.572-3.1-2.209-4.559-3.46s-2.39-3.162-4.091-4.091a7.855,7.855,0,0,0-5.132-.456,26.938,26.938,0,0,0-9.573,3.594c-.988.584-2.069,1.3-3.2,1.087a4.284,4.284,0,0,1-2.338-1.806,12.661,12.661,0,0,0-.976,5.932,2.548,2.548,0,0,1-.029.894,2.688,2.688,0,0,1-.637.941c-1.023,1.169-1.66,3.068-.649,4.272.438.52,1.116.807,1.543,1.338.766.953.508,2.338.491,3.553a1.829,1.829,0,0,0,.3,1.2,1.753,1.753,0,0,0,1.677.4,4.564,4.564,0,0,1,1.788-.17,3,3,0,0,1,1.555,1.169C806.633,207.343,807.381,210.02,808.188,212.954Z" transform="translate(-375.285 -144.836)" fill="#2d293d"/><g transform="translate(421.593 40.386)" opacity="0.1"><path d="M825.155,219.713a4.675,4.675,0,0,1-1.87,1.239c-3.834,1.6-8.147,1.414-12.273,1.169a2.151,2.151,0,0,1-2.344-2.127c-.807-2.922-1.549-5.6-3.466-8.042a3,3,0,0,0-1.555-1.2,4.793,4.793,0,0,0-1.788.169,1.753,1.753,0,0,1-1.677-.4,1.829,1.829,0,0,1-.3-1.2c0-1.227.275-2.6-.491-3.553-.427-.532-1.1-.818-1.543-1.344a2.665,2.665,0,0,1-.263-2.724c-.731,1.169-1.04,2.636-.193,3.641.438.52,1.116.807,1.543,1.338.766.958.509,2.338.491,3.553a1.817,1.817,0,0,0,.3,1.2,1.753,1.753,0,0,0,1.683.4,4.564,4.564,0,0,1,1.788-.169,3,3,0,0,1,1.555,1.169c1.911,2.437,2.659,5.114,3.466,8.048a2.922,2.922,0,0,0,1.011,1.853,2.834,2.834,0,0,0,1.286.281c4.144.257,8.463.444,12.273-1.169a4.63,4.63,0,0,0,1.87-1.239,3.571,3.571,0,0,0,.584-1.1A.288.288,0,0,1,825.155,219.713Z" transform="translate(-796.877 -193.301)"/><path d="M799.973,193.923a2,2,0,0,0,.415-.69,2.55,2.55,0,0,0,0-.894,12.675,12.675,0,0,1,.637-4.921l-.076-.088a12.566,12.566,0,0,0-.976,5.926A4.23,4.23,0,0,1,799.973,193.923Z" transform="translate(-798.148 -187.33)"/></g><path d="M812.08,248.668s16.99,2.256,18.515-.3" transform="translate(-381.602 -172.31)" opacity="0.1"/><path d="M868.59,236.85s9.445,0,11.52,3.553" transform="translate(-405.085 -167.523)" opacity="0.1"/><path d="M950.12,771.186a14.979,14.979,0,0,1-10.2,3.811c-.958,0-2.285.181-2.291,1.14a1.606,1.606,0,0,0,.28.783,9.38,9.38,0,0,0,5.26,4.132,18.592,18.592,0,0,0,6.365.4l6.224-.322c1.169-.064,2.338-.123,3.507-.269s2.443-.386,3.665-.584a47.925,47.925,0,0,1,9.065-.421,2.744,2.744,0,0,0,2.233-.584c.479-.585.234-1.7.053-2.577-.374-1.806,0-3.7-.345-5.511-.584-3.179-3.337-5.617-6.353-6.768-2.805-1.064-7.773-2.285-10.427-.508C954.357,765.774,952.644,768.889,950.12,771.186Z" transform="translate(-433.774 -386.168)" fill="#3f3d56"/><path d="M960.694,585.514c.549,2.613,3.08,4.611,3.15,7.276.064,2.139-1.461,3.933-2.56,5.763a38.438,38.438,0,0,0-2.612,5.915A90.351,90.351,0,0,1,951,619.722c-1.461,2.338-3.1,4.833-2.764,7.551a11.314,11.314,0,0,0,1.327,3.612l4.383,8.708a25.217,25.217,0,0,1,2.238,5.5c.38,1.654.415,3.366.637,5.05.69,5.342,3.2,10.719,1.712,15.9-.129.444-.584.982-.941.672,1.449,2.706,2.613,5.43,2.5,8.5-.058,1.607-.549,3.285.041,4.781a5.232,5.232,0,0,1,.684,1.882,12,12,0,0,1-.251,1.292c-.123,1.233,1.011,2.262,2.186,2.653s2.455.362,3.641.719c2.279.684,3.91,2.648,5.844,4.009a12.442,12.442,0,0,0,6.733,2.192,1.7,1.7,0,0,0,.994-.2,1.608,1.608,0,0,0,.549-1.2,6.686,6.686,0,0,0-2.408-5.809,2.631,2.631,0,0,1-.894-.935,2.256,2.256,0,0,1-.082-1.046,78.764,78.764,0,0,0-.257-14.377,21.836,21.836,0,0,1-.228-4.576,18.687,18.687,0,0,0,.368-3.8,20.2,20.2,0,0,0-1.169-3.647c-.678-2.174-.491-4.512-.584-6.786a59.508,59.508,0,0,0-1.923-11.689,8.84,8.84,0,0,0-1.818-4.22c-.912-.953-2.385-1.864-2.04-3.133a3.712,3.712,0,0,1,.836-1.245,5,5,0,0,0,1.04-3.811,1.713,1.713,0,0,0,1.97-.923A30.815,30.815,0,0,0,988.747,607.8a5.787,5.787,0,0,1,.69-1.566,7.057,7.057,0,0,1,2.823-1.829c3.191-1.607,5.394-4.617,7.417-7.563a13.367,13.367,0,0,0,3.255-9.439l.181-6.867a3.71,3.71,0,0,0-.129-1.344,3.361,3.361,0,0,0-.742-1.087,13.2,13.2,0,0,0-7.282-3.927c-1.87-.333-3.781-.269-5.675-.427-3.67-.3-7.294-1.444-10.964-1.169-5.769.427-10.906,4.424-13.624,9.532C963.744,583.912,962.739,585.479,960.694,585.514Z" transform="translate(-438.165 -307.017)" fill="#464353"/><path d="M910.248,507.557a7.676,7.676,0,0,1-.421,3.127A2.185,2.185,0,0,1,907.261,512c.3-.672-.491-1.438-1.227-1.356a2.3,2.3,0,0,0-1.619,1.391,5.173,5.173,0,0,0-.468,3.174c.234,1.344,1.011,2.636.807,3.986-.164,1.122-.988,2.238-.549,3.279a5.31,5.31,0,0,0,1.058,1.268,3.577,3.577,0,0,1-.38,4.909l11.058.222c-.4,1.847.427,3.735,1.373,5.377a33.9,33.9,0,0,0,25.272,16.5,2.2,2.2,0,0,0-.532,3.361,3.122,3.122,0,0,0,3.553.2,25.282,25.282,0,0,0,3.039-2.279,9.351,9.351,0,0,1,6.248-1.683c1.385.134,2.729.584,4.12.655,4.091.216,7.6-2.729,11.537-3.933,2.87-.883,6.125-.883,8.533-2.677a3.4,3.4,0,0,0,1.59-3.291,5.5,5.5,0,0,0-1.169-1.935,33.422,33.422,0,0,1-3.2-5.991,35.834,35.834,0,0,0-7.989-10.707,71.457,71.457,0,0,0-7.925-6.008,13.519,13.519,0,0,0-2.139-1.292A23.97,23.97,0,0,1,955.332,514c-1.3-.818-2.046-2.262-3.045-3.425-2.192-2.56-5.558-3.735-8.258-5.745-1.812-1.35-3.413-3.127-5.576-3.776-1.052-.321-2.168-.345-3.22-.66-2.39-.725-4.132-2.846-6.476-3.705-1.853-.678-3.9-.5-5.844-.742a13.684,13.684,0,0,1-6.107-2.326,7.248,7.248,0,0,0-1.946-1.134c-2.963-.9-3.2,4.617-3.507,6.528A62.972,62.972,0,0,0,910.248,507.557Z" transform="translate(-419.747 -273.713)" fill="#ff7657"/><path d="M890.6,543.6c.5,5.389-3.571,10.608-2.385,15.885.251,1.122.736,2.192.912,3.331.5,3.127-1.373,6.09-3.156,8.708l-15.313,22.472a14.136,14.136,0,0,1-2.186,2.7c-2.922,2.6-7.317,2.338-11.163,3.109a19.289,19.289,0,0,0-7.481,3.308.485.485,0,0,0-.093.672,6.429,6.429,0,0,0,5.558,2.612c.4.526,0,1.309-.555,1.689-.818.584-1.952.719-2.116,2.116a2.338,2.338,0,0,0,.281,1.4,4.366,4.366,0,0,0,2.677,1.859c5.3,1.625,11.029-1.227,15-5.1s6.815-8.767,10.707-12.706c2.157-2.186,4.605-4.05,6.826-6.166,4.43-4.226,7.878-9.351,11.2-14.489a16.034,16.034,0,0,0,2.425-4.933c.415-1.794.222-3.612.7-5.348.62-2.274,2.285-4.091,3.67-6,2.718-3.741,4.535-8.317,4.173-12.928s-3.214-9.158-7.563-10.725a6.8,6.8,0,0,0-4.237-.257c-1.783.549-3.1,2.022-4.313,3.437l-2.922,3.355a7.824,7.824,0,0,0-1.642,2.577,2.694,2.694,0,0,0,.584,2.864" transform="translate(-397.209 -291.247)" fill="#fbbebe"/><path d="M925.96,512.041c-2.011.117-4.226.315-5.646,1.753a8.04,8.04,0,0,0-1.426,2.233c-1.379,2.811-2.724,5.751-2.823,8.884-.082,2.5.643,4.95,1.023,7.423.316,2.057-.485,4.155-.637,6.236a43.285,43.285,0,0,0,8.054-3.1,26.969,26.969,0,0,1,4.716-2.449c2.4-.8,6.429.584,8.714,1.695.123-1.6-1.081-4.4-.953-6a6.7,6.7,0,0,1,.356-1.987,12.06,12.06,0,0,1,1.21-1.923,7.867,7.867,0,0,0-.707-9.217c-2.028-2.279-5.2-3.133-8.229-3.507a35.6,35.6,0,0,0-5.745-.2" transform="translate(-424.811 -281.796)" fill="#ff7657"/></g></g></svg>